<svg width="360" height="88" viewBox="0 0 360 88" fill="none" xmlns="http://www.w3.org/2000/svg">
<path d="M95.25 33.5C89.4516 33.5 84.75 38.3234 84.75 44.2672C84.75 49.025 87.7594 53.0562 91.9312 54.4812C91.9898 54.494 92.0495 54.5002 92.1094 54.5C92.4984 54.5 92.6484 54.2141 92.6484 53.9656C92.6484 53.7078 92.6391 53.0328 92.6344 52.1328C92.2871 52.2142 91.9317 52.2567 91.575 52.2594C89.5547 52.2594 89.0953 50.6891 89.0953 50.6891C88.6172 49.4469 87.9281 49.1141 87.9281 49.1141C87.0141 48.4719 87.9234 48.4531 87.9937 48.4531H87.9984C89.0531 48.5469 89.6063 49.5687 89.6063 49.5687C90.1313 50.4875 90.8344 50.7453 91.4625 50.7453C91.8778 50.737 92.2867 50.6412 92.6625 50.4641C92.7563 49.7703 93.0281 49.2969 93.3281 49.025C90.9984 48.7531 88.5469 47.8297 88.5469 43.7047C88.5469 42.5281 88.9547 41.5672 89.625 40.8172C89.5172 40.5453 89.1562 39.4484 89.7281 37.9672C89.8048 37.9488 89.8837 37.9409 89.9625 37.9437C90.3422 37.9437 91.2 38.0891 92.6156 39.0734C94.3357 38.5922 96.1549 38.5922 97.875 39.0734C99.2906 38.0891 100.148 37.9437 100.528 37.9437C100.607 37.9409 100.686 37.9488 100.763 37.9672C101.334 39.4484 100.973 40.5453 100.866 40.8172C101.536 41.5719 101.944 42.5328 101.944 43.7047C101.944 47.8391 99.4875 48.7484 97.1484 49.0156C97.5234 49.3484 97.8609 50.0047 97.8609 51.0078C97.8609 52.4469 97.8469 53.6094 97.8469 53.9609C97.8469 54.2141 97.9922 54.5 98.3812 54.5C98.4442 54.5003 98.5071 54.494 98.5687 54.4812C102.745 53.0562 105.75 49.0203 105.75 44.2672C105.75 38.3234 101.048 33.5 95.25 33.5Z" fill="white"/>
<path fill-rule="evenodd" clip-rule="evenodd" d="M158.715 36.5352C157.895 35.7154 156.784 35.2533 155.625 35.2498H146.875C145.716 35.2533 144.605 35.7154 143.785 36.5352C142.965 37.3549 142.503 38.4658 142.5 39.6252V48.3748C142.503 49.5342 142.965 50.6451 143.785 51.4648C144.605 52.2846 145.716 52.7467 146.875 52.7502H155.625C156.784 52.7467 157.895 52.2846 158.715 51.4648C159.535 50.6451 159.997 49.5342 160 48.3748V39.6252C159.997 38.4658 159.535 37.3549 158.715 36.5352ZM146.875 33.5H155.625C158.994 33.5 161.75 36.2562 161.75 39.6252V48.3748C161.75 51.7437 158.994 54.5 155.625 54.5H146.875C143.506 54.5 140.75 51.7437 140.75 48.3748V39.6252C140.75 36.2562 143.506 33.5 146.875 33.5ZM156.208 39.404C156.424 39.5482 156.678 39.6252 156.937 39.6252C157.11 39.6255 157.281 39.5918 157.44 39.526C157.599 39.4602 157.744 39.3635 157.866 39.2416C157.988 39.1196 158.085 38.9748 158.151 38.8154C158.217 38.656 158.25 38.4851 158.25 38.3127C158.25 38.0531 158.173 37.7993 158.029 37.5835C157.884 37.3676 157.679 37.1994 157.44 37.1001C157.2 37.0007 156.936 36.9747 156.681 37.0254C156.427 37.076 156.193 37.201 156.009 37.3846C155.826 37.5681 155.701 37.802 155.65 38.0566C155.599 38.3112 155.625 38.5751 155.725 38.8149C155.824 39.0548 155.992 39.2597 156.208 39.404ZM153.195 41.0897C152.619 40.7051 151.942 40.4998 151.25 40.4998C150.322 40.5008 149.432 40.8699 148.776 41.5261C148.12 42.1823 147.751 43.072 147.75 44C147.75 44.6923 147.955 45.369 148.34 45.9446C148.724 46.5202 149.271 46.9688 149.911 47.2337C150.55 47.4986 151.254 47.568 151.933 47.4329C152.612 47.2978 153.235 46.9645 153.725 46.475C154.214 45.9855 154.548 45.3618 154.683 44.6828C154.818 44.0039 154.749 43.3001 154.484 42.6605C154.219 42.021 153.77 41.4743 153.195 41.0897ZM148.333 39.6348C149.197 39.0579 150.212 38.75 151.25 38.75C152.642 38.75 153.978 39.3031 154.962 40.2877C155.947 41.2723 156.5 42.6076 156.5 44C156.5 45.0383 156.192 46.0534 155.615 46.9167C155.038 47.7801 154.218 48.453 153.259 48.8504C152.3 49.2477 151.244 49.3517 150.226 49.1491C149.207 48.9465 148.272 48.4465 147.538 47.7123C146.803 46.9781 146.303 46.0426 146.101 45.0242C145.898 44.0058 146.002 42.9502 146.4 41.9909C146.797 41.0316 147.47 40.2117 148.333 39.6348Z" fill="white"/>
<path d="M219.092 38.9745C219.092 36.8652 217.541 35.1683 215.624 35.1683C213.027 35.0469 210.378 35 207.672 35H206.828C204.128 35 201.475 35.0469 198.878 35.1687C196.966 35.1687 195.414 36.875 195.414 38.9844C195.297 40.6527 195.247 42.3214 195.25 43.9902C195.245 45.6589 195.298 47.3292 195.409 49.0011C195.409 51.1105 196.961 52.8214 198.873 52.8214C201.602 52.948 204.4 53.0042 207.245 52.9995C210.095 53.0089 212.886 52.9495 215.617 52.8214C217.534 52.8214 219.086 51.1105 219.086 49.0011C219.198 47.3277 219.25 45.6589 219.245 43.9855C219.256 42.3167 219.205 40.6464 219.092 38.9745ZM204.953 48.5886V39.3777L211.75 43.9808L204.953 48.5886Z" fill="white"/>
<path d="M272.07 33.5H254.544C253.587 33.5 252.75 34.1891 252.75 35.1355V52.7005C252.75 53.652 253.587 54.5 254.544 54.5H272.065C273.028 54.5 273.75 53.6464 273.75 52.7005V35.1355C273.756 34.1891 273.028 33.5 272.07 33.5ZM259.26 51.0045H256.251V41.6506H259.26V51.0045ZM257.859 40.2284H257.838C256.875 40.2284 256.252 39.5117 256.252 38.6145C256.252 37.7009 256.891 37.0011 257.876 37.0011C258.86 37.0011 259.463 37.6958 259.484 38.6145C259.484 39.5117 258.86 40.2284 257.859 40.2284ZM270.255 51.0045H267.246V45.89C267.246 44.6647 266.808 43.8275 265.72 43.8275C264.888 43.8275 264.396 44.39 264.177 44.938C264.095 45.1348 264.073 45.403 264.073 45.6767V51.0045H261.065V41.6506H264.073V42.9523C264.511 42.3289 265.195 41.4317 266.786 41.4317C268.761 41.4317 270.255 42.7334 270.255 45.5398L270.255 51.0045Z" fill="white"/>
</svg>
