<svg width="1216" height="394" viewBox="0 0 1216 394" fill="none" xmlns="http://www.w3.org/2000/svg">
<rect width="1216" height="394" rx="20" fill="black"/>
<path d="M86.8164 93.5625V122H83.2227V93.5625H86.8164ZM83.0078 91.4531L86.7969 85.7109H91.1523L85.918 91.4531H83.0078ZM99.9219 119.441C100.612 119.441 101.237 119.305 101.797 119.031C102.37 118.745 102.839 118.302 103.203 117.703C103.568 117.091 103.776 116.297 103.828 115.32H107.07C107.018 116.727 106.66 117.964 105.996 119.031C105.345 120.086 104.486 120.913 103.418 121.512C102.363 122.098 101.198 122.391 99.9219 122.391C98.5547 122.391 97.3633 122.169 96.3477 121.727C95.3451 121.284 94.5117 120.646 93.8477 119.812C93.1966 118.966 92.7083 117.944 92.3828 116.746C92.0573 115.535 91.8945 114.161 91.8945 112.625V110.242C91.8945 108.706 92.0573 107.339 92.3828 106.141C92.7083 104.93 93.1966 103.908 93.8477 103.074C94.5117 102.228 95.3451 101.583 96.3477 101.141C97.3633 100.698 98.5547 100.477 99.9219 100.477C101.354 100.477 102.591 100.783 103.633 101.395C104.688 101.993 105.508 102.866 106.094 104.012C106.693 105.145 107.018 106.518 107.07 108.133H103.828C103.776 107.091 103.587 106.225 103.262 105.535C102.936 104.832 102.493 104.311 101.934 103.973C101.374 103.621 100.703 103.445 99.9219 103.445C99.0104 103.445 98.2552 103.608 97.6562 103.934C97.0703 104.246 96.6081 104.702 96.2695 105.301C95.931 105.9 95.6901 106.616 95.5469 107.449C95.4167 108.283 95.3516 109.214 95.3516 110.242V112.625C95.3516 113.654 95.4167 114.591 95.5469 115.438C95.6901 116.271 95.9245 116.987 96.25 117.586C96.5885 118.185 97.0573 118.647 97.6562 118.973C98.2552 119.285 99.0104 119.441 99.9219 119.441ZM110.352 112.449V110.438C110.352 108.797 110.56 107.358 110.977 106.121C111.393 104.871 111.973 103.829 112.715 102.996C113.457 102.163 114.323 101.538 115.312 101.121C116.302 100.691 117.363 100.477 118.496 100.477C119.655 100.477 120.729 100.691 121.719 101.121C122.708 101.538 123.574 102.163 124.316 102.996C125.072 103.829 125.658 104.871 126.074 106.121C126.491 107.358 126.699 108.797 126.699 110.438V112.449C126.699 114.09 126.491 115.535 126.074 116.785C125.658 118.022 125.078 119.057 124.336 119.891C123.594 120.724 122.728 121.349 121.738 121.766C120.749 122.182 119.681 122.391 118.535 122.391C117.389 122.391 116.322 122.182 115.332 121.766C114.342 121.349 113.47 120.724 112.715 119.891C111.973 119.057 111.393 118.022 110.977 116.785C110.56 115.535 110.352 114.09 110.352 112.449ZM113.809 110.438V112.449C113.809 113.608 113.926 114.624 114.16 115.496C114.395 116.368 114.727 117.098 115.156 117.684C115.586 118.27 116.087 118.712 116.66 119.012C117.233 119.298 117.858 119.441 118.535 119.441C119.316 119.441 120 119.298 120.586 119.012C121.185 118.712 121.68 118.27 122.07 117.684C122.461 117.098 122.754 116.368 122.949 115.496C123.145 114.624 123.242 113.608 123.242 112.449V110.438C123.242 109.279 123.125 108.27 122.891 107.41C122.656 106.538 122.324 105.809 121.895 105.223C121.465 104.624 120.957 104.181 120.371 103.895C119.798 103.595 119.173 103.445 118.496 103.445C117.832 103.445 117.214 103.595 116.641 103.895C116.068 104.181 115.566 104.624 115.137 105.223C114.72 105.809 114.395 106.538 114.16 107.41C113.926 108.27 113.809 109.279 113.809 110.438ZM134.609 105.379V122H131.152V100.867H134.414L134.609 105.379ZM133.77 110.633L132.363 110.574C132.35 109.129 132.513 107.794 132.852 106.57C133.203 105.333 133.698 104.259 134.336 103.348C134.987 102.436 135.762 101.733 136.66 101.238C137.559 100.73 138.555 100.477 139.648 100.477C140.508 100.477 141.289 100.62 141.992 100.906C142.695 101.18 143.294 101.622 143.789 102.234C144.284 102.846 144.661 103.641 144.922 104.617C145.195 105.581 145.332 106.759 145.332 108.152V122H141.875V108.113C141.875 107.007 141.751 106.121 141.504 105.457C141.27 104.78 140.905 104.292 140.41 103.992C139.928 103.68 139.316 103.523 138.574 103.523C137.897 103.523 137.266 103.712 136.68 104.09C136.094 104.467 135.579 104.988 135.137 105.652C134.707 106.316 134.368 107.078 134.121 107.938C133.887 108.784 133.77 109.682 133.77 110.633ZM158.086 122.391C156.823 122.391 155.684 122.202 154.668 121.824C153.652 121.447 152.786 120.874 152.07 120.105C151.354 119.324 150.807 118.341 150.43 117.156C150.052 115.971 149.863 114.572 149.863 112.957V110.574C149.863 108.712 150.078 107.137 150.508 105.848C150.951 104.559 151.543 103.523 152.285 102.742C153.027 101.948 153.867 101.375 154.805 101.023C155.742 100.659 156.706 100.477 157.695 100.477C159.023 100.477 160.156 100.691 161.094 101.121C162.031 101.551 162.793 102.189 163.379 103.035C163.965 103.882 164.395 104.923 164.668 106.16C164.954 107.397 165.098 108.823 165.098 110.438V112.449H151.895V109.5H161.641V109.012C161.589 107.918 161.439 106.954 161.191 106.121C160.957 105.288 160.566 104.637 160.02 104.168C159.473 103.686 158.698 103.445 157.695 103.445C157.057 103.445 156.465 103.556 155.918 103.777C155.384 103.986 154.922 104.357 154.531 104.891C154.154 105.411 153.854 106.134 153.633 107.059C153.424 107.983 153.32 109.155 153.32 110.574V112.957C153.32 114.09 153.424 115.066 153.633 115.887C153.854 116.694 154.173 117.365 154.59 117.898C155.02 118.419 155.54 118.81 156.152 119.07C156.777 119.318 157.487 119.441 158.281 119.441C159.44 119.441 160.397 119.22 161.152 118.777C161.908 118.322 162.565 117.742 163.125 117.039L164.941 119.207C164.564 119.741 164.069 120.255 163.457 120.75C162.858 121.232 162.116 121.629 161.23 121.941C160.358 122.241 159.31 122.391 158.086 122.391ZM179.531 116.59C179.531 116.056 179.401 115.587 179.141 115.184C178.88 114.78 178.451 114.389 177.852 114.012C177.266 113.634 176.471 113.23 175.469 112.801C174.492 112.397 173.613 112 172.832 111.609C172.064 111.206 171.413 110.77 170.879 110.301C170.345 109.832 169.935 109.292 169.648 108.68C169.375 108.055 169.238 107.319 169.238 106.473C169.238 105.626 169.395 104.845 169.707 104.129C170.033 103.4 170.488 102.762 171.074 102.215C171.66 101.668 172.363 101.245 173.184 100.945C174.004 100.633 174.922 100.477 175.938 100.477C177.383 100.477 178.613 100.757 179.629 101.316C180.645 101.876 181.419 102.645 181.953 103.621C182.5 104.585 182.773 105.672 182.773 106.883H179.336C179.336 106.297 179.206 105.743 178.945 105.223C178.685 104.702 178.301 104.279 177.793 103.953C177.285 103.615 176.667 103.445 175.938 103.445C175.169 103.445 174.544 103.582 174.062 103.855C173.581 104.129 173.229 104.487 173.008 104.93C172.799 105.359 172.695 105.835 172.695 106.355C172.695 106.746 172.747 107.085 172.852 107.371C172.969 107.645 173.164 107.905 173.438 108.152C173.711 108.387 174.082 108.634 174.551 108.895C175.033 109.142 175.645 109.428 176.387 109.754C177.819 110.314 179.023 110.88 180 111.453C180.977 112.026 181.719 112.697 182.227 113.465C182.734 114.233 182.988 115.184 182.988 116.316C182.988 117.241 182.819 118.081 182.48 118.836C182.155 119.578 181.686 120.216 181.074 120.75C180.462 121.284 179.727 121.694 178.867 121.98C178.021 122.254 177.07 122.391 176.016 122.391C174.427 122.391 173.079 122.078 171.973 121.453C170.879 120.815 170.046 119.988 169.473 118.973C168.913 117.944 168.633 116.844 168.633 115.672H172.09C172.129 116.661 172.35 117.43 172.754 117.977C173.171 118.523 173.672 118.901 174.258 119.109C174.844 119.318 175.43 119.422 176.016 119.422C176.784 119.422 177.428 119.311 177.949 119.09C178.47 118.855 178.861 118.523 179.121 118.094C179.395 117.664 179.531 117.163 179.531 116.59Z" fill="#E1E1E6"/>
<path d="M92.0001 201.625C95.1067 201.625 97.6251 199.107 97.6251 196C97.6251 192.893 95.1067 190.375 92.0001 190.375C88.8935 190.375 86.3751 192.893 86.3751 196C86.3751 199.107 88.8935 201.625 92.0001 201.625Z" stroke="white" stroke-width="1.5" stroke-linecap="round" stroke-linejoin="round"/>
<path d="M92.0001 187.375V185.5" stroke="white" stroke-width="1.5" stroke-linecap="round" stroke-linejoin="round"/>
<path d="M85.8968 189.897L84.575 188.575" stroke="white" stroke-width="1.5" stroke-linecap="round" stroke-linejoin="round"/>
<path d="M83.3751 196H81.5001" stroke="white" stroke-width="1.5" stroke-linecap="round" stroke-linejoin="round"/>
<path d="M85.8968 202.103L84.575 203.425" stroke="white" stroke-width="1.5" stroke-linecap="round" stroke-linejoin="round"/>
<path d="M92.0001 204.625V206.5" stroke="white" stroke-width="1.5" stroke-linecap="round" stroke-linejoin="round"/>
<path d="M98.103 202.103L99.4249 203.425" stroke="white" stroke-width="1.5" stroke-linecap="round" stroke-linejoin="round"/>
<path d="M100.625 196H102.5" stroke="white" stroke-width="1.5" stroke-linecap="round" stroke-linejoin="round"/>
<path d="M98.103 189.897L99.4249 188.575" stroke="white" stroke-width="1.5" stroke-linecap="round" stroke-linejoin="round"/>
<path d="M156.25 194.5V190" stroke="white" stroke-width="1.5" stroke-linecap="round" stroke-linejoin="round"/>
<path d="M158.5 192.25H154" stroke="white" stroke-width="1.5" stroke-linecap="round" stroke-linejoin="round"/>
<path d="M151.75 186.25V189.25" stroke="white" stroke-width="1.5" stroke-linecap="round" stroke-linejoin="round"/>
<path d="M153.25 187.75H150.25" stroke="white" stroke-width="1.5" stroke-linecap="round" stroke-linejoin="round"/>
<path d="M156.315 198.306C154.843 198.719 153.287 198.733 151.808 198.346C150.328 197.958 148.978 197.184 147.897 196.103C146.816 195.022 146.042 193.672 145.654 192.192C145.267 190.713 145.281 189.157 145.694 187.685C144.242 188.089 142.921 188.866 141.864 189.939C140.806 191.013 140.048 192.344 139.665 193.802C139.282 195.259 139.287 196.792 139.681 198.246C140.074 199.701 140.842 201.027 141.908 202.093C142.973 203.158 144.299 203.926 145.754 204.319C147.209 204.713 148.741 204.719 150.198 204.336C151.656 203.953 152.988 203.194 154.061 202.137C155.134 201.079 155.911 199.758 156.315 198.306Z" stroke="white" stroke-width="1.5" stroke-linecap="round" stroke-linejoin="round"/>
<path d="M263.25 189.133C262.406 189.5 261.513 189.741 260.599 189.85C261.56 189.288 262.282 188.394 262.63 187.338C261.722 187.868 260.731 188.241 259.698 188.439C259.263 187.983 258.74 187.621 258.16 187.373C257.581 187.126 256.957 186.999 256.327 187C253.776 187 251.712 189.034 251.712 191.542C251.71 191.891 251.75 192.239 251.831 192.578C250.002 192.492 248.21 192.026 246.572 191.208C244.933 190.39 243.484 189.24 242.315 187.83C241.905 188.521 241.688 189.309 241.688 190.113C241.688 191.688 242.509 193.08 243.75 193.895C243.015 193.878 242.295 193.683 241.651 193.328V193.384C241.651 195.588 243.245 197.42 245.354 197.838C244.957 197.943 244.549 197.997 244.138 197.997C243.847 197.997 243.556 197.969 243.27 197.913C243.857 199.717 245.564 201.03 247.585 201.067C245.943 202.333 243.926 203.018 241.852 203.013C241.483 203.012 241.116 202.99 240.75 202.947C242.86 204.294 245.313 205.007 247.816 205C256.317 205 260.962 198.077 260.962 192.072C260.962 191.875 260.956 191.678 260.947 191.486C261.848 190.845 262.628 190.048 263.25 189.133Z" fill="white"/>
<path fill-rule="evenodd" clip-rule="evenodd" d="M298.25 189.25L299.75 185.5H317.75V198.25L312.5 203.5H308.75L305.75 206.5H302.75V203.5H298.25V189.25ZM312.5 200.5L315.5 197.5V187.75H301.25V200.5H305V203.5L308 200.5H312.5ZM313.25 190.703H311V196.75H313.25V190.703ZM308 190.703H305.75V196.75H308V190.703Z" fill="white"/>
<path d="M364 185.5C358.202 185.5 353.5 190.323 353.5 196.267C353.5 201.025 356.509 205.056 360.681 206.481C360.74 206.494 360.799 206.5 360.859 206.5C361.248 206.5 361.398 206.214 361.398 205.966C361.398 205.708 361.389 205.033 361.384 204.133C361.037 204.214 360.682 204.257 360.325 204.259C358.305 204.259 357.845 202.689 357.845 202.689C357.367 201.447 356.678 201.114 356.678 201.114C355.764 200.472 356.673 200.453 356.744 200.453H356.748C357.803 200.547 358.356 201.569 358.356 201.569C358.881 202.487 359.584 202.745 360.212 202.745C360.628 202.737 361.037 202.641 361.413 202.464C361.506 201.77 361.778 201.297 362.078 201.025C359.748 200.753 357.297 199.83 357.297 195.705C357.297 194.528 357.705 193.567 358.375 192.817C358.267 192.545 357.906 191.448 358.478 189.967C358.555 189.949 358.634 189.941 358.712 189.944C359.092 189.944 359.95 190.089 361.366 191.073C363.086 190.592 364.905 190.592 366.625 191.073C368.041 190.089 368.898 189.944 369.278 189.944C369.357 189.941 369.436 189.949 369.513 189.967C370.084 191.448 369.723 192.545 369.616 192.817C370.286 193.572 370.694 194.533 370.694 195.705C370.694 199.839 368.238 200.748 365.898 201.016C366.273 201.348 366.611 202.005 366.611 203.008C366.611 204.447 366.597 205.609 366.597 205.961C366.597 206.214 366.742 206.5 367.131 206.5C367.194 206.5 367.257 206.494 367.319 206.481C371.495 205.056 374.5 201.02 374.5 196.267C374.5 190.323 369.798 185.5 364 185.5Z" fill="white"/>
<path fill-rule="evenodd" clip-rule="evenodd" d="M430.5 196.063C430.5 190.265 425.798 185.563 420 185.563C414.202 185.563 409.5 190.265 409.5 196.063C409.5 201.304 413.339 205.648 418.359 206.436V199.099H415.693V196.063H418.359V193.75C418.359 191.119 419.927 189.664 422.325 189.664C423.474 189.664 424.676 189.87 424.676 189.87V192.454H423.352C422.048 192.454 421.64 193.263 421.64 194.094V196.063H424.552L424.087 199.099H421.641V206.437C426.661 205.649 430.5 201.305 430.5 196.063Z" fill="white"/>
<path fill-rule="evenodd" clip-rule="evenodd" d="M483.465 188.535C482.645 187.715 481.534 187.253 480.375 187.25H471.625C470.466 187.253 469.355 187.715 468.535 188.535C467.715 189.355 467.253 190.466 467.25 191.625V200.375C467.253 201.534 467.715 202.645 468.535 203.465C469.355 204.285 470.466 204.747 471.625 204.75H480.375C481.534 204.747 482.645 204.285 483.465 203.465C484.285 202.645 484.747 201.534 484.75 200.375V191.625C484.747 190.466 484.285 189.355 483.465 188.535ZM471.625 185.5H480.375C483.744 185.5 486.5 188.256 486.5 191.625V200.375C486.5 203.744 483.744 206.5 480.375 206.5H471.625C468.256 206.5 465.5 203.744 465.5 200.375V191.625C465.5 188.256 468.256 185.5 471.625 185.5ZM480.958 191.404C481.174 191.548 481.428 191.625 481.687 191.625C481.86 191.626 482.031 191.592 482.19 191.526C482.349 191.46 482.494 191.364 482.616 191.242C482.738 191.12 482.835 190.975 482.901 190.815C482.967 190.656 483 190.485 483 190.313C483 190.053 482.923 189.799 482.779 189.583C482.634 189.368 482.429 189.199 482.19 189.1C481.95 189.001 481.686 188.975 481.431 189.025C481.177 189.076 480.943 189.201 480.759 189.385C480.576 189.568 480.451 189.802 480.4 190.057C480.349 190.311 480.375 190.575 480.475 190.815C480.574 191.055 480.742 191.26 480.958 191.404ZM477.945 193.09C477.369 192.705 476.692 192.5 476 192.5C475.072 192.501 474.182 192.87 473.526 193.526C472.87 194.182 472.501 195.072 472.5 196C472.5 196.692 472.705 197.369 473.09 197.945C473.474 198.52 474.021 198.969 474.661 199.234C475.3 199.499 476.004 199.568 476.683 199.433C477.362 199.298 477.985 198.964 478.475 198.475C478.964 197.985 479.298 197.362 479.433 196.683C479.568 196.004 479.499 195.3 479.234 194.661C478.969 194.021 478.52 193.474 477.945 193.09ZM473.083 191.635C473.947 191.058 474.962 190.75 476 190.75C477.392 190.75 478.728 191.303 479.712 192.288C480.697 193.272 481.25 194.608 481.25 196C481.25 197.038 480.942 198.053 480.365 198.917C479.788 199.78 478.968 200.453 478.009 200.85C477.05 201.248 475.994 201.352 474.976 201.149C473.957 200.947 473.022 200.447 472.288 199.712C471.553 198.978 471.053 198.043 470.851 197.024C470.648 196.006 470.752 194.95 471.15 193.991C471.547 193.032 472.22 192.212 473.083 191.635Z" fill="white"/>
<path d="M543.843 190.975C543.843 188.865 542.291 187.168 540.374 187.168C537.777 187.047 535.128 187 532.422 187H531.578C528.878 187 526.225 187.047 523.628 187.169C521.716 187.169 520.164 188.875 520.164 190.984C520.047 192.653 519.997 194.321 520 195.99C519.995 197.659 520.048 199.329 520.159 201.001C520.159 203.11 521.711 204.821 523.623 204.821C526.352 204.948 529.15 205.004 531.995 205C534.845 205.009 537.636 204.95 540.367 204.821C542.284 204.821 543.836 203.11 543.836 201.001C543.948 199.328 544 197.659 543.995 195.985C544.006 194.317 543.955 192.646 543.843 190.975ZM529.703 200.589V191.378L536.5 195.981L529.703 200.589Z" fill="white"/>
<path d="M596.82 185.5H579.294C578.337 185.5 577.5 186.189 577.5 187.135V204.7C577.5 205.652 578.337 206.5 579.294 206.5H596.815C597.778 206.5 598.5 205.646 598.5 204.7V187.135C598.506 186.189 597.778 185.5 596.82 185.5ZM584.01 203.005H581.001V193.651H584.01V203.005ZM582.609 192.228H582.588C581.625 192.228 581.002 191.512 581.002 190.615C581.002 189.701 581.641 189.001 582.626 189.001C583.61 189.001 584.213 189.696 584.234 190.615C584.234 191.512 583.61 192.228 582.609 192.228ZM595.005 203.005H591.996V197.89C591.996 196.665 591.558 195.828 590.47 195.828C589.638 195.828 589.146 196.39 588.927 196.938C588.845 197.135 588.823 197.403 588.823 197.677V203.005H585.815V193.651H588.823V194.952C589.261 194.329 589.945 193.432 591.536 193.432C593.511 193.432 595.005 194.733 595.005 197.54L595.005 203.005Z" fill="white"/>
<path fill-rule="evenodd" clip-rule="evenodd" d="M651.44 188.552C650.47 187.58 649.316 186.811 648.047 186.287C646.778 185.763 645.417 185.496 644.044 185.5C638.281 185.5 633.59 190.168 633.588 195.906C633.585 197.734 634.067 199.529 634.984 201.109L633.5 206.5L639.043 205.053C640.577 205.884 642.295 206.319 644.04 206.319H644.044C649.806 206.319 654.497 201.65 654.5 195.912C654.503 194.544 654.235 193.188 653.71 191.925C653.184 190.661 652.413 189.514 651.44 188.552ZM644.044 204.562H644.04C642.485 204.563 640.957 204.146 639.617 203.357L639.3 203.169L636.011 204.028L636.889 200.836L636.682 200.508C635.812 199.131 635.351 197.535 635.353 195.906C635.353 191.138 639.253 187.258 644.047 187.258C646.347 187.254 648.554 188.163 650.183 189.786C651.812 191.409 652.73 193.613 652.735 195.913C652.733 200.682 648.834 204.562 644.044 204.562ZM648.811 198.085C648.55 197.954 647.264 197.325 647.026 197.238C646.788 197.152 646.612 197.108 646.438 197.369C646.264 197.629 645.763 198.213 645.611 198.388C645.458 198.564 645.306 198.583 645.045 198.453C644.784 198.323 643.941 198.048 642.943 197.163C642.167 196.473 641.643 195.622 641.49 195.362C641.338 195.101 641.474 194.96 641.605 194.831C641.722 194.714 641.866 194.527 641.997 194.375C642.127 194.223 642.171 194.115 642.258 193.941C642.344 193.768 642.301 193.616 642.236 193.486C642.171 193.356 641.648 192.076 641.431 191.555C641.218 191.048 641.003 191.117 640.843 191.109C640.691 191.102 640.515 191.1 640.342 191.1C640.21 191.103 640.08 191.134 639.96 191.19C639.84 191.246 639.733 191.326 639.645 191.425C639.406 191.686 638.731 192.316 638.731 193.594C638.731 194.873 639.668 196.111 639.798 196.284C639.927 196.458 641.64 199.084 644.261 200.21C644.747 200.419 645.245 200.602 645.75 200.758C646.376 200.956 646.946 200.928 647.396 200.861C647.898 200.786 648.943 200.232 649.16 199.624C649.377 199.017 649.377 198.497 649.312 198.388C649.247 198.28 649.072 198.214 648.811 198.085Z" fill="white"/>
<path d="M707.321 189.562C707.17 189.484 707.022 189.398 706.878 189.304C706.462 189.029 706.08 188.704 705.741 188.338C704.892 187.367 704.575 186.382 704.459 185.693H704.463C704.366 185.12 704.406 184.75 704.412 184.75H700.548V199.693C700.548 199.893 700.548 200.092 700.54 200.288C700.54 200.312 700.537 200.335 700.536 200.361C700.536 200.372 700.536 200.383 700.533 200.394V200.403C700.493 200.939 700.321 201.457 700.033 201.911C699.745 202.365 699.35 202.741 698.882 203.007C698.395 203.284 697.844 203.429 697.284 203.429C695.483 203.429 694.024 201.961 694.024 200.148C694.024 198.334 695.483 196.866 697.284 196.866C697.624 196.866 697.963 196.92 698.287 197.025L698.292 193.09C697.308 192.963 696.309 193.042 695.357 193.32C694.405 193.599 693.521 194.071 692.761 194.709C692.095 195.287 691.535 195.978 691.106 196.749C690.943 197.03 690.327 198.16 690.253 199.995C690.206 201.036 690.519 202.114 690.668 202.56V202.57C690.761 202.832 691.125 203.728 691.717 204.483C692.194 205.089 692.758 205.621 693.391 206.062V206.053L693.4 206.062C695.271 207.333 697.345 207.25 697.345 207.25C697.704 207.235 698.907 207.25 700.273 206.603C701.788 205.885 702.65 204.816 702.65 204.816C703.201 204.177 703.639 203.449 703.946 202.663C704.296 201.744 704.412 200.641 704.412 200.2V192.273C704.459 192.301 705.084 192.714 705.084 192.714C705.084 192.714 705.983 193.291 707.387 193.666C708.393 193.933 709.75 193.99 709.75 193.99V190.153C709.275 190.205 708.31 190.055 707.321 189.562Z" fill="white"/>
<rect x="80" y="256" width="747" height="58" rx="8" fill="#121214"/>
<path d="M107.839 285.182C107.839 286.424 107.612 287.492 107.158 288.386C106.703 289.277 106.08 289.962 105.288 290.443C104.5 290.92 103.605 291.159 102.601 291.159C101.593 291.159 100.694 290.92 99.902 290.443C99.1141 289.962 98.4929 289.275 98.0384 288.381C97.5838 287.487 97.3565 286.42 97.3565 285.182C97.3565 283.939 97.5838 282.873 98.0384 281.983C98.4929 281.089 99.1141 280.403 99.902 279.926C100.694 279.445 101.593 279.205 102.601 279.205C103.605 279.205 104.5 279.445 105.288 279.926C106.08 280.403 106.703 281.089 107.158 281.983C107.612 282.873 107.839 283.939 107.839 285.182ZM106.101 285.182C106.101 284.235 105.947 283.437 105.641 282.79C105.338 282.138 104.921 281.646 104.391 281.312C103.864 280.975 103.268 280.807 102.601 280.807C101.93 280.807 101.332 280.975 100.805 281.312C100.279 281.646 99.8622 282.138 99.5554 282.79C99.2524 283.437 99.1009 284.235 99.1009 285.182C99.1009 286.129 99.2524 286.928 99.5554 287.58C99.8622 288.227 100.279 288.72 100.805 289.057C101.332 289.39 101.93 289.557 102.601 289.557C103.268 289.557 103.864 289.39 104.391 289.057C104.921 288.72 105.338 288.227 105.641 287.58C105.947 286.928 106.101 286.129 106.101 285.182ZM116.432 284.403L114.892 284.676C114.828 284.479 114.725 284.292 114.585 284.114C114.449 283.936 114.263 283.79 114.028 283.676C113.794 283.562 113.5 283.506 113.148 283.506C112.667 283.506 112.265 283.614 111.943 283.83C111.621 284.042 111.46 284.316 111.46 284.653C111.46 284.945 111.568 285.18 111.784 285.358C112 285.536 112.348 285.682 112.83 285.795L114.216 286.114C115.019 286.299 115.617 286.585 116.011 286.972C116.405 287.358 116.602 287.86 116.602 288.477C116.602 289 116.451 289.466 116.148 289.875C115.848 290.28 115.43 290.598 114.892 290.83C114.358 291.061 113.739 291.176 113.034 291.176C112.057 291.176 111.259 290.968 110.642 290.551C110.025 290.131 109.646 289.534 109.506 288.761L111.148 288.511C111.25 288.939 111.46 289.263 111.778 289.483C112.097 289.699 112.511 289.807 113.023 289.807C113.58 289.807 114.025 289.691 114.358 289.46C114.691 289.225 114.858 288.939 114.858 288.602C114.858 288.33 114.756 288.1 114.551 287.915C114.35 287.729 114.042 287.589 113.625 287.494L112.148 287.17C111.333 286.985 110.731 286.689 110.341 286.284C109.955 285.879 109.761 285.366 109.761 284.744C109.761 284.229 109.905 283.778 110.193 283.392C110.481 283.006 110.879 282.705 111.386 282.489C111.894 282.269 112.475 282.159 113.131 282.159C114.074 282.159 114.816 282.364 115.358 282.773C115.9 283.178 116.258 283.722 116.432 284.403ZM122.705 291V282.273H124.403V291H122.705ZM122.864 281.108L124.193 278.489H125.983L124.222 281.108H122.864ZM130.365 291.176C129.52 291.176 128.793 290.985 128.183 290.602C127.577 290.216 127.111 289.684 126.786 289.006C126.46 288.328 126.297 287.551 126.297 286.676C126.297 285.79 126.464 285.008 126.797 284.33C127.13 283.648 127.6 283.116 128.206 282.733C128.812 282.35 129.526 282.159 130.348 282.159C131.011 282.159 131.602 282.282 132.121 282.528C132.64 282.771 133.058 283.112 133.376 283.551C133.698 283.991 133.89 284.504 133.95 285.091H132.297C132.206 284.682 131.998 284.33 131.672 284.034C131.35 283.739 130.918 283.591 130.376 283.591C129.903 283.591 129.488 283.716 129.132 283.966C128.78 284.212 128.505 284.564 128.308 285.023C128.111 285.477 128.013 286.015 128.013 286.636C128.013 287.273 128.109 287.822 128.303 288.284C128.496 288.746 128.768 289.104 129.121 289.358C129.477 289.612 129.895 289.739 130.376 289.739C130.698 289.739 130.99 289.68 131.251 289.562C131.517 289.441 131.738 289.269 131.916 289.045C132.098 288.822 132.225 288.553 132.297 288.239H133.95C133.89 288.803 133.706 289.307 133.399 289.75C133.092 290.193 132.681 290.542 132.166 290.795C131.655 291.049 131.054 291.176 130.365 291.176ZM139.443 291.176C138.625 291.176 137.911 290.989 137.301 290.614C136.691 290.239 136.218 289.714 135.881 289.04C135.544 288.366 135.375 287.578 135.375 286.676C135.375 285.771 135.544 284.979 135.881 284.301C136.218 283.623 136.691 283.097 137.301 282.722C137.911 282.347 138.625 282.159 139.443 282.159C140.261 282.159 140.975 282.347 141.585 282.722C142.195 283.097 142.669 283.623 143.006 284.301C143.343 284.979 143.511 285.771 143.511 286.676C143.511 287.578 143.343 288.366 143.006 289.04C142.669 289.714 142.195 290.239 141.585 290.614C140.975 290.989 140.261 291.176 139.443 291.176ZM139.449 289.75C139.979 289.75 140.419 289.61 140.767 289.33C141.116 289.049 141.373 288.676 141.54 288.21C141.71 287.744 141.795 287.231 141.795 286.67C141.795 286.114 141.71 285.602 141.54 285.136C141.373 284.667 141.116 284.29 140.767 284.006C140.419 283.722 139.979 283.58 139.449 283.58C138.915 283.58 138.472 283.722 138.119 284.006C137.771 284.29 137.511 284.667 137.341 285.136C137.174 285.602 137.091 286.114 137.091 286.67C137.091 287.231 137.174 287.744 137.341 288.21C137.511 288.676 137.771 289.049 138.119 289.33C138.472 289.61 138.915 289.75 139.449 289.75ZM147.107 285.818V291H145.408V282.273H147.038V283.693H147.146C147.347 283.231 147.661 282.86 148.089 282.58C148.521 282.299 149.065 282.159 149.72 282.159C150.315 282.159 150.836 282.284 151.283 282.534C151.73 282.78 152.076 283.148 152.322 283.636C152.569 284.125 152.692 284.729 152.692 285.449V291H150.993V285.653C150.993 285.021 150.828 284.527 150.499 284.17C150.169 283.811 149.716 283.631 149.141 283.631C148.747 283.631 148.396 283.716 148.089 283.886C147.786 284.057 147.546 284.307 147.368 284.636C147.194 284.962 147.107 285.356 147.107 285.818ZM158.732 291.176C157.872 291.176 157.131 290.992 156.51 290.625C155.893 290.254 155.415 289.733 155.078 289.062C154.745 288.388 154.578 287.598 154.578 286.693C154.578 285.799 154.745 285.011 155.078 284.33C155.415 283.648 155.885 283.116 156.487 282.733C157.093 282.35 157.802 282.159 158.612 282.159C159.105 282.159 159.582 282.241 160.044 282.403C160.506 282.566 160.921 282.822 161.288 283.17C161.656 283.519 161.946 283.972 162.158 284.528C162.37 285.081 162.476 285.754 162.476 286.545V287.148H155.538V285.875H160.811C160.811 285.428 160.72 285.032 160.538 284.688C160.357 284.339 160.101 284.064 159.771 283.864C159.446 283.663 159.063 283.562 158.624 283.562C158.146 283.562 157.73 283.68 157.374 283.915C157.021 284.146 156.749 284.449 156.555 284.824C156.366 285.195 156.271 285.598 156.271 286.034V287.028C156.271 287.612 156.374 288.108 156.578 288.517C156.786 288.926 157.076 289.239 157.447 289.455C157.819 289.667 158.252 289.773 158.749 289.773C159.071 289.773 159.364 289.727 159.629 289.636C159.894 289.542 160.124 289.402 160.317 289.216C160.51 289.03 160.658 288.801 160.76 288.528L162.368 288.818C162.239 289.292 162.008 289.706 161.675 290.062C161.345 290.415 160.93 290.689 160.43 290.886C159.934 291.08 159.368 291.176 158.732 291.176ZM170.901 284.403L169.361 284.676C169.296 284.479 169.194 284.292 169.054 284.114C168.918 283.936 168.732 283.79 168.497 283.676C168.262 283.562 167.969 283.506 167.616 283.506C167.135 283.506 166.734 283.614 166.412 283.83C166.09 284.042 165.929 284.316 165.929 284.653C165.929 284.945 166.037 285.18 166.253 285.358C166.469 285.536 166.817 285.682 167.298 285.795L168.685 286.114C169.488 286.299 170.086 286.585 170.48 286.972C170.874 287.358 171.071 287.86 171.071 288.477C171.071 289 170.92 289.466 170.616 289.875C170.317 290.28 169.899 290.598 169.361 290.83C168.827 291.061 168.207 291.176 167.503 291.176C166.526 291.176 165.728 290.968 165.111 290.551C164.493 290.131 164.115 289.534 163.974 288.761L165.616 288.511C165.719 288.939 165.929 289.263 166.247 289.483C166.565 289.699 166.98 289.807 167.491 289.807C168.048 289.807 168.493 289.691 168.827 289.46C169.16 289.225 169.327 288.939 169.327 288.602C169.327 288.33 169.224 288.1 169.02 287.915C168.819 287.729 168.51 287.589 168.094 287.494L166.616 287.17C165.802 286.985 165.2 286.689 164.81 286.284C164.423 285.879 164.23 285.366 164.23 284.744C164.23 284.229 164.374 283.778 164.662 283.392C164.95 283.006 165.348 282.705 165.855 282.489C166.363 282.269 166.944 282.159 167.599 282.159C168.543 282.159 169.285 282.364 169.827 282.773C170.368 283.178 170.726 283.722 170.901 284.403ZM180.44 291.17C179.736 291.17 179.107 290.991 178.554 290.631C178.005 290.267 177.573 289.75 177.259 289.08C176.948 288.405 176.793 287.597 176.793 286.653C176.793 285.71 176.95 284.903 177.264 284.233C177.582 283.562 178.018 283.049 178.571 282.693C179.124 282.337 179.751 282.159 180.452 282.159C180.993 282.159 181.429 282.25 181.759 282.432C182.092 282.61 182.349 282.818 182.531 283.057C182.717 283.295 182.861 283.506 182.963 283.688H183.065V279.364H184.764V291H183.105V289.642H182.963C182.861 289.828 182.713 290.04 182.52 290.278C182.33 290.517 182.069 290.725 181.736 290.903C181.402 291.081 180.971 291.17 180.44 291.17ZM180.815 289.722C181.304 289.722 181.717 289.593 182.054 289.335C182.395 289.074 182.652 288.712 182.827 288.25C183.005 287.788 183.094 287.25 183.094 286.636C183.094 286.03 183.007 285.5 182.832 285.045C182.658 284.591 182.402 284.237 182.065 283.983C181.728 283.729 181.312 283.602 180.815 283.602C180.304 283.602 179.878 283.735 179.537 284C179.196 284.265 178.938 284.627 178.764 285.085C178.594 285.544 178.509 286.061 178.509 286.636C178.509 287.22 178.596 287.744 178.77 288.21C178.944 288.676 179.202 289.045 179.543 289.318C179.887 289.587 180.312 289.722 180.815 289.722ZM190.865 291.176C190.047 291.176 189.333 290.989 188.723 290.614C188.113 290.239 187.64 289.714 187.303 289.04C186.965 288.366 186.797 287.578 186.797 286.676C186.797 285.771 186.965 284.979 187.303 284.301C187.64 283.623 188.113 283.097 188.723 282.722C189.333 282.347 190.047 282.159 190.865 282.159C191.683 282.159 192.397 282.347 193.007 282.722C193.617 283.097 194.09 283.623 194.428 284.301C194.765 284.979 194.933 285.771 194.933 286.676C194.933 287.578 194.765 288.366 194.428 289.04C194.09 289.714 193.617 290.239 193.007 290.614C192.397 290.989 191.683 291.176 190.865 291.176ZM190.871 289.75C191.401 289.75 191.84 289.61 192.189 289.33C192.537 289.049 192.795 288.676 192.962 288.21C193.132 287.744 193.217 287.231 193.217 286.67C193.217 286.114 193.132 285.602 192.962 285.136C192.795 284.667 192.537 284.29 192.189 284.006C191.84 283.722 191.401 283.58 190.871 283.58C190.337 283.58 189.893 283.722 189.541 284.006C189.193 284.29 188.933 284.667 188.763 285.136C188.596 285.602 188.513 286.114 188.513 286.67C188.513 287.231 188.596 287.744 188.763 288.21C188.933 288.676 189.193 289.049 189.541 289.33C189.893 289.61 190.337 289.75 190.871 289.75ZM205.138 282.273V283.636H200.371V282.273H205.138ZM201.649 280.182H203.348V288.438C203.348 288.767 203.397 289.015 203.496 289.182C203.594 289.345 203.721 289.456 203.876 289.517C204.036 289.574 204.208 289.602 204.393 289.602C204.53 289.602 204.649 289.593 204.751 289.574C204.854 289.555 204.933 289.54 204.99 289.528L205.297 290.932C205.198 290.97 205.058 291.008 204.876 291.045C204.695 291.087 204.467 291.11 204.195 291.114C203.748 291.121 203.331 291.042 202.945 290.875C202.558 290.708 202.246 290.451 202.007 290.102C201.768 289.754 201.649 289.316 201.649 288.79V280.182ZM210.685 291.176C209.825 291.176 209.084 290.992 208.463 290.625C207.846 290.254 207.368 289.733 207.031 289.062C206.698 288.388 206.531 287.598 206.531 286.693C206.531 285.799 206.698 285.011 207.031 284.33C207.368 283.648 207.838 283.116 208.44 282.733C209.046 282.35 209.755 282.159 210.565 282.159C211.058 282.159 211.535 282.241 211.997 282.403C212.459 282.566 212.874 282.822 213.241 283.17C213.609 283.519 213.899 283.972 214.111 284.528C214.323 285.081 214.429 285.754 214.429 286.545V287.148H207.491V285.875H212.764C212.764 285.428 212.673 285.032 212.491 284.688C212.31 284.339 212.054 284.064 211.724 283.864C211.399 283.663 211.016 283.562 210.577 283.562C210.099 283.562 209.683 283.68 209.327 283.915C208.974 284.146 208.702 284.449 208.509 284.824C208.319 285.195 208.224 285.598 208.224 286.034V287.028C208.224 287.612 208.327 288.108 208.531 288.517C208.74 288.926 209.029 289.239 209.401 289.455C209.772 289.667 210.205 289.773 210.702 289.773C211.024 289.773 211.317 289.727 211.582 289.636C211.848 289.542 212.077 289.402 212.27 289.216C212.463 289.03 212.611 288.801 212.713 288.528L214.321 288.818C214.192 289.292 213.961 289.706 213.628 290.062C213.298 290.415 212.884 290.689 212.384 290.886C211.887 291.08 211.321 291.176 210.685 291.176ZM216.314 291V282.273H217.945V283.693H218.053C218.234 283.212 218.532 282.837 218.945 282.568C219.357 282.295 219.852 282.159 220.428 282.159C221.011 282.159 221.5 282.295 221.893 282.568C222.291 282.841 222.585 283.216 222.774 283.693H222.865C223.073 283.227 223.405 282.856 223.859 282.58C224.314 282.299 224.856 282.159 225.484 282.159C226.276 282.159 226.922 282.407 227.422 282.903C227.926 283.4 228.178 284.148 228.178 285.148V291H226.479V285.307C226.479 284.716 226.318 284.288 225.996 284.023C225.674 283.758 225.289 283.625 224.842 283.625C224.289 283.625 223.859 283.795 223.553 284.136C223.246 284.473 223.092 284.907 223.092 285.438V291H221.399V285.199C221.399 284.725 221.251 284.345 220.956 284.057C220.661 283.769 220.276 283.625 219.803 283.625C219.481 283.625 219.183 283.71 218.911 283.881C218.642 284.047 218.424 284.28 218.257 284.58C218.094 284.879 218.013 285.225 218.013 285.619V291H216.314ZM232.994 291.193C232.441 291.193 231.941 291.091 231.494 290.886C231.047 290.678 230.693 290.377 230.432 289.983C230.174 289.589 230.045 289.106 230.045 288.534C230.045 288.042 230.14 287.636 230.33 287.318C230.519 287 230.775 286.748 231.097 286.562C231.419 286.377 231.778 286.237 232.176 286.142C232.574 286.047 232.979 285.975 233.392 285.926C233.915 285.866 234.339 285.816 234.665 285.778C234.991 285.737 235.227 285.67 235.375 285.58C235.523 285.489 235.597 285.341 235.597 285.136V285.097C235.597 284.6 235.456 284.216 235.176 283.943C234.9 283.67 234.487 283.534 233.938 283.534C233.366 283.534 232.915 283.661 232.585 283.915C232.259 284.165 232.034 284.443 231.909 284.75L230.312 284.386C230.502 283.856 230.778 283.428 231.142 283.102C231.509 282.773 231.932 282.534 232.409 282.386C232.886 282.235 233.388 282.159 233.915 282.159C234.263 282.159 234.633 282.201 235.023 282.284C235.417 282.364 235.784 282.511 236.125 282.727C236.47 282.943 236.752 283.252 236.972 283.653C237.191 284.051 237.301 284.568 237.301 285.205V291H235.642V289.807H235.574C235.464 290.027 235.299 290.242 235.08 290.455C234.86 290.667 234.578 290.843 234.233 290.983C233.888 291.123 233.475 291.193 232.994 291.193ZM233.364 289.83C233.833 289.83 234.235 289.737 234.568 289.551C234.905 289.366 235.161 289.123 235.335 288.824C235.513 288.521 235.602 288.197 235.602 287.852V286.727C235.542 286.788 235.424 286.845 235.25 286.898C235.08 286.947 234.884 286.991 234.665 287.028C234.445 287.062 234.231 287.095 234.023 287.125C233.814 287.152 233.64 287.174 233.5 287.193C233.17 287.235 232.869 287.305 232.597 287.403C232.328 287.502 232.112 287.644 231.949 287.83C231.79 288.011 231.71 288.254 231.71 288.557C231.71 288.977 231.866 289.295 232.176 289.511C232.487 289.723 232.883 289.83 233.364 289.83ZM243.798 294.273V282.273H245.457V283.688H245.599C245.698 283.506 245.84 283.295 246.026 283.057C246.211 282.818 246.469 282.61 246.798 282.432C247.128 282.25 247.563 282.159 248.105 282.159C248.81 282.159 249.438 282.337 249.991 282.693C250.545 283.049 250.978 283.562 251.293 284.233C251.611 284.903 251.77 285.71 251.77 286.653C251.77 287.597 251.613 288.405 251.298 289.08C250.984 289.75 250.552 290.267 250.003 290.631C249.454 290.991 248.827 291.17 248.122 291.17C247.592 291.17 247.158 291.081 246.821 290.903C246.488 290.725 246.226 290.517 246.037 290.278C245.848 290.04 245.702 289.828 245.599 289.642H245.497V294.273H243.798ZM245.463 286.636C245.463 287.25 245.552 287.788 245.73 288.25C245.908 288.712 246.166 289.074 246.503 289.335C246.84 289.593 247.253 289.722 247.741 289.722C248.249 289.722 248.673 289.587 249.014 289.318C249.355 289.045 249.613 288.676 249.787 288.21C249.965 287.744 250.054 287.22 250.054 286.636C250.054 286.061 249.967 285.544 249.793 285.085C249.622 284.627 249.365 284.265 249.02 284C248.679 283.735 248.253 283.602 247.741 283.602C247.249 283.602 246.832 283.729 246.491 283.983C246.154 284.237 245.899 284.591 245.724 285.045C245.55 285.5 245.463 286.03 245.463 286.636ZM257.349 291.176C256.531 291.176 255.817 290.989 255.207 290.614C254.598 290.239 254.124 289.714 253.787 289.04C253.45 288.366 253.281 287.578 253.281 286.676C253.281 285.771 253.45 284.979 253.787 284.301C254.124 283.623 254.598 283.097 255.207 282.722C255.817 282.347 256.531 282.159 257.349 282.159C258.168 282.159 258.882 282.347 259.491 282.722C260.101 283.097 260.575 283.623 260.912 284.301C261.249 284.979 261.418 285.771 261.418 286.676C261.418 287.578 261.249 288.366 260.912 289.04C260.575 289.714 260.101 290.239 259.491 290.614C258.882 290.989 258.168 291.176 257.349 291.176ZM257.355 289.75C257.885 289.75 258.325 289.61 258.673 289.33C259.022 289.049 259.279 288.676 259.446 288.21C259.616 287.744 259.702 287.231 259.702 286.67C259.702 286.114 259.616 285.602 259.446 285.136C259.279 284.667 259.022 284.29 258.673 284.006C258.325 283.722 257.885 283.58 257.355 283.58C256.821 283.58 256.378 283.722 256.026 284.006C255.677 284.29 255.418 284.667 255.247 285.136C255.08 285.602 254.997 286.114 254.997 286.67C254.997 287.231 255.08 287.744 255.247 288.21C255.418 288.676 255.677 289.049 256.026 289.33C256.378 289.61 256.821 289.75 257.355 289.75ZM266.581 291.17C265.876 291.17 265.248 290.991 264.695 290.631C264.145 290.267 263.714 289.75 263.399 289.08C263.089 288.405 262.933 287.597 262.933 286.653C262.933 285.71 263.09 284.903 263.405 284.233C263.723 283.562 264.159 283.049 264.712 282.693C265.265 282.337 265.892 282.159 266.592 282.159C267.134 282.159 267.57 282.25 267.899 282.432C268.232 282.61 268.49 282.818 268.672 283.057C268.857 283.295 269.001 283.506 269.104 283.688H269.206V279.364H270.905V291H269.246V289.642H269.104C269.001 289.828 268.854 290.04 268.661 290.278C268.471 290.517 268.21 290.725 267.876 290.903C267.543 291.081 267.111 291.17 266.581 291.17ZM266.956 289.722C267.445 289.722 267.857 289.593 268.195 289.335C268.536 289.074 268.793 288.712 268.967 288.25C269.145 287.788 269.234 287.25 269.234 286.636C269.234 286.03 269.147 285.5 268.973 285.045C268.799 284.591 268.543 284.237 268.206 283.983C267.869 283.729 267.452 283.602 266.956 283.602C266.445 283.602 266.018 283.735 265.678 284C265.337 284.265 265.079 284.627 264.905 285.085C264.734 285.544 264.649 286.061 264.649 286.636C264.649 287.22 264.736 287.744 264.911 288.21C265.085 288.676 265.342 289.045 265.683 289.318C266.028 289.587 266.452 289.722 266.956 289.722ZM277.091 291.176C276.231 291.176 275.491 290.992 274.869 290.625C274.252 290.254 273.775 289.733 273.438 289.062C273.104 288.388 272.938 287.598 272.938 286.693C272.938 285.799 273.104 285.011 273.438 284.33C273.775 283.648 274.244 283.116 274.847 282.733C275.453 282.35 276.161 282.159 276.972 282.159C277.464 282.159 277.941 282.241 278.403 282.403C278.866 282.566 279.28 282.822 279.648 283.17C280.015 283.519 280.305 283.972 280.517 284.528C280.729 285.081 280.835 285.754 280.835 286.545V287.148H273.898V285.875H279.17C279.17 285.428 279.08 285.032 278.898 284.688C278.716 284.339 278.46 284.064 278.131 283.864C277.805 283.663 277.422 283.562 276.983 283.562C276.506 283.562 276.089 283.68 275.733 283.915C275.381 284.146 275.108 284.449 274.915 284.824C274.725 285.195 274.631 285.598 274.631 286.034V287.028C274.631 287.612 274.733 288.108 274.938 288.517C275.146 288.926 275.436 289.239 275.807 289.455C276.178 289.667 276.612 289.773 277.108 289.773C277.43 289.773 277.723 289.727 277.989 289.636C278.254 289.542 278.483 289.402 278.676 289.216C278.869 289.03 279.017 288.801 279.119 288.528L280.727 288.818C280.598 289.292 280.367 289.706 280.034 290.062C279.705 290.415 279.29 290.689 278.79 290.886C278.294 291.08 277.727 291.176 277.091 291.176ZM282.72 291V282.273H284.351V283.693H284.459C284.641 283.212 284.938 282.837 285.351 282.568C285.764 282.295 286.258 282.159 286.834 282.159C287.417 282.159 287.906 282.295 288.3 282.568C288.697 282.841 288.991 283.216 289.18 283.693H289.271C289.48 283.227 289.811 282.856 290.266 282.58C290.72 282.299 291.262 282.159 291.891 282.159C292.682 282.159 293.328 282.407 293.828 282.903C294.332 283.4 294.584 284.148 294.584 285.148V291H292.885V285.307C292.885 284.716 292.724 284.288 292.402 284.023C292.08 283.758 291.696 283.625 291.249 283.625C290.696 283.625 290.266 283.795 289.959 284.136C289.652 284.473 289.499 284.907 289.499 285.438V291H287.805V285.199C287.805 284.725 287.658 284.345 287.362 284.057C287.067 283.769 286.682 283.625 286.209 283.625C285.887 283.625 285.589 283.71 285.317 283.881C285.048 284.047 284.83 284.28 284.663 284.58C284.5 284.879 284.419 285.225 284.419 285.619V291H282.72ZM307.635 284.403L306.095 284.676C306.031 284.479 305.929 284.292 305.788 284.114C305.652 283.936 305.466 283.79 305.232 283.676C304.997 283.562 304.703 283.506 304.351 283.506C303.87 283.506 303.468 283.614 303.146 283.83C302.824 284.042 302.663 284.316 302.663 284.653C302.663 284.945 302.771 285.18 302.987 285.358C303.203 285.536 303.552 285.682 304.033 285.795L305.419 286.114C306.222 286.299 306.821 286.585 307.214 286.972C307.608 287.358 307.805 287.86 307.805 288.477C307.805 289 307.654 289.466 307.351 289.875C307.052 290.28 306.633 290.598 306.095 290.83C305.561 291.061 304.942 291.176 304.237 291.176C303.26 291.176 302.463 290.968 301.845 290.551C301.228 290.131 300.849 289.534 300.709 288.761L302.351 288.511C302.453 288.939 302.663 289.263 302.982 289.483C303.3 289.699 303.714 289.807 304.226 289.807C304.783 289.807 305.228 289.691 305.561 289.46C305.894 289.225 306.061 288.939 306.061 288.602C306.061 288.33 305.959 288.1 305.754 287.915C305.554 287.729 305.245 287.589 304.828 287.494L303.351 287.17C302.536 286.985 301.934 286.689 301.544 286.284C301.158 285.879 300.964 285.366 300.964 284.744C300.964 284.229 301.108 283.778 301.396 283.392C301.684 283.006 302.082 282.705 302.589 282.489C303.097 282.269 303.679 282.159 304.334 282.159C305.277 282.159 306.019 282.364 306.561 282.773C307.103 283.178 307.461 283.722 307.635 284.403ZM313.435 291.176C312.575 291.176 311.834 290.992 311.213 290.625C310.596 290.254 310.118 289.733 309.781 289.062C309.448 288.388 309.281 287.598 309.281 286.693C309.281 285.799 309.448 285.011 309.781 284.33C310.118 283.648 310.588 283.116 311.19 282.733C311.796 282.35 312.505 282.159 313.315 282.159C313.808 282.159 314.285 282.241 314.747 282.403C315.209 282.566 315.624 282.822 315.991 283.17C316.359 283.519 316.649 283.972 316.861 284.528C317.073 285.081 317.179 285.754 317.179 286.545V287.148H310.241V285.875H315.514C315.514 285.428 315.423 285.032 315.241 284.688C315.06 284.339 314.804 284.064 314.474 283.864C314.149 283.663 313.766 283.562 313.327 283.562C312.849 283.562 312.433 283.68 312.077 283.915C311.724 284.146 311.452 284.449 311.259 284.824C311.069 285.195 310.974 285.598 310.974 286.034V287.028C310.974 287.612 311.077 288.108 311.281 288.517C311.49 288.926 311.779 289.239 312.151 289.455C312.522 289.667 312.955 289.773 313.452 289.773C313.774 289.773 314.067 289.727 314.332 289.636C314.598 289.542 314.827 289.402 315.02 289.216C315.213 289.03 315.361 288.801 315.463 288.528L317.071 288.818C316.942 289.292 316.711 289.706 316.378 290.062C316.048 290.415 315.634 290.689 315.134 290.886C314.637 291.08 314.071 291.176 313.435 291.176ZM319.064 291V282.273H320.706V283.659H320.797C320.956 283.189 321.236 282.82 321.638 282.551C322.043 282.278 322.501 282.142 323.013 282.142C323.119 282.142 323.244 282.146 323.388 282.153C323.536 282.161 323.651 282.17 323.734 282.182V283.807C323.666 283.788 323.545 283.767 323.371 283.744C323.196 283.718 323.022 283.705 322.848 283.705C322.446 283.705 322.089 283.79 321.774 283.96C321.464 284.127 321.217 284.36 321.036 284.659C320.854 284.955 320.763 285.292 320.763 285.67V291H319.064ZM331.979 291.193C331.426 291.193 330.926 291.091 330.479 290.886C330.032 290.678 329.678 290.377 329.416 289.983C329.159 289.589 329.03 289.106 329.03 288.534C329.03 288.042 329.125 287.636 329.314 287.318C329.503 287 329.759 286.748 330.081 286.562C330.403 286.377 330.763 286.237 331.161 286.142C331.558 286.047 331.964 285.975 332.376 285.926C332.899 285.866 333.323 285.816 333.649 285.778C333.975 285.737 334.212 285.67 334.359 285.58C334.507 285.489 334.581 285.341 334.581 285.136V285.097C334.581 284.6 334.441 284.216 334.161 283.943C333.884 283.67 333.471 283.534 332.922 283.534C332.35 283.534 331.899 283.661 331.57 283.915C331.244 284.165 331.018 284.443 330.893 284.75L329.297 284.386C329.486 283.856 329.763 283.428 330.126 283.102C330.494 282.773 330.916 282.534 331.393 282.386C331.871 282.235 332.373 282.159 332.899 282.159C333.248 282.159 333.617 282.201 334.007 282.284C334.401 282.364 334.768 282.511 335.109 282.727C335.454 282.943 335.736 283.252 335.956 283.653C336.176 284.051 336.286 284.568 336.286 285.205V291H334.626V289.807H334.558C334.448 290.027 334.284 290.242 334.064 290.455C333.844 290.667 333.562 290.843 333.217 290.983C332.873 291.123 332.46 291.193 331.979 291.193ZM332.348 289.83C332.818 289.83 333.219 289.737 333.553 289.551C333.89 289.366 334.145 289.123 334.32 288.824C334.498 288.521 334.587 288.197 334.587 287.852V286.727C334.526 286.788 334.409 286.845 334.234 286.898C334.064 286.947 333.869 286.991 333.649 287.028C333.429 287.062 333.215 287.095 333.007 287.125C332.799 287.152 332.625 287.174 332.484 287.193C332.155 287.235 331.854 287.305 331.581 287.403C331.312 287.502 331.096 287.644 330.933 287.83C330.774 288.011 330.695 288.254 330.695 288.557C330.695 288.977 330.85 289.295 331.161 289.511C331.471 289.723 331.867 289.83 332.348 289.83ZM342.224 291.176C341.38 291.176 340.652 290.985 340.043 290.602C339.437 290.216 338.971 289.684 338.645 289.006C338.319 288.328 338.156 287.551 338.156 286.676C338.156 285.79 338.323 285.008 338.656 284.33C338.99 283.648 339.459 283.116 340.065 282.733C340.671 282.35 341.385 282.159 342.207 282.159C342.87 282.159 343.461 282.282 343.98 282.528C344.499 282.771 344.918 283.112 345.236 283.551C345.558 283.991 345.749 284.504 345.81 285.091H344.156C344.065 284.682 343.857 284.33 343.531 284.034C343.209 283.739 342.777 283.591 342.236 283.591C341.762 283.591 341.348 283.716 340.991 283.966C340.639 284.212 340.365 284.564 340.168 285.023C339.971 285.477 339.872 286.015 339.872 286.636C339.872 287.273 339.969 287.822 340.162 288.284C340.355 288.746 340.628 289.104 340.98 289.358C341.336 289.612 341.755 289.739 342.236 289.739C342.558 289.739 342.849 289.68 343.111 289.562C343.376 289.441 343.598 289.269 343.776 289.045C343.957 288.822 344.084 288.553 344.156 288.239H345.81C345.749 288.803 345.565 289.307 345.259 289.75C344.952 290.193 344.541 290.542 344.026 290.795C343.514 291.049 342.914 291.176 342.224 291.176ZM351.388 291.176C350.528 291.176 349.787 290.992 349.166 290.625C348.549 290.254 348.071 289.733 347.734 289.062C347.401 288.388 347.234 287.598 347.234 286.693C347.234 285.799 347.401 285.011 347.734 284.33C348.071 283.648 348.541 283.116 349.143 282.733C349.75 282.35 350.458 282.159 351.268 282.159C351.761 282.159 352.238 282.241 352.7 282.403C353.162 282.566 353.577 282.822 353.945 283.17C354.312 283.519 354.602 283.972 354.814 284.528C355.026 285.081 355.132 285.754 355.132 286.545V287.148H348.195V285.875H353.467C353.467 285.428 353.376 285.032 353.195 284.688C353.013 284.339 352.757 284.064 352.428 283.864C352.102 283.663 351.719 283.562 351.28 283.562C350.803 283.562 350.386 283.68 350.03 283.915C349.678 284.146 349.405 284.449 349.212 284.824C349.022 285.195 348.928 285.598 348.928 286.034V287.028C348.928 287.612 349.03 288.108 349.234 288.517C349.443 288.926 349.732 289.239 350.104 289.455C350.475 289.667 350.909 289.773 351.405 289.773C351.727 289.773 352.02 289.727 352.286 289.636C352.551 289.542 352.78 289.402 352.973 289.216C353.166 289.03 353.314 288.801 353.416 288.528L355.024 288.818C354.895 289.292 354.664 289.706 354.331 290.062C354.001 290.415 353.587 290.689 353.087 290.886C352.59 291.08 352.024 291.176 351.388 291.176ZM363.557 284.403L362.017 284.676C361.953 284.479 361.85 284.292 361.71 284.114C361.574 283.936 361.388 283.79 361.153 283.676C360.919 283.562 360.625 283.506 360.273 283.506C359.792 283.506 359.39 283.614 359.068 283.83C358.746 284.042 358.585 284.316 358.585 284.653C358.585 284.945 358.693 285.18 358.909 285.358C359.125 285.536 359.473 285.682 359.955 285.795L361.341 286.114C362.144 286.299 362.742 286.585 363.136 286.972C363.53 287.358 363.727 287.86 363.727 288.477C363.727 289 363.576 289.466 363.273 289.875C362.973 290.28 362.555 290.598 362.017 290.83C361.483 291.061 360.864 291.176 360.159 291.176C359.182 291.176 358.384 290.968 357.767 290.551C357.15 290.131 356.771 289.534 356.631 288.761L358.273 288.511C358.375 288.939 358.585 289.263 358.903 289.483C359.222 289.699 359.636 289.807 360.148 289.807C360.705 289.807 361.15 289.691 361.483 289.46C361.816 289.225 361.983 288.939 361.983 288.602C361.983 288.33 361.881 288.1 361.676 287.915C361.475 287.729 361.167 287.589 360.75 287.494L359.273 287.17C358.458 286.985 357.856 286.689 357.466 286.284C357.08 285.879 356.886 285.366 356.886 284.744C356.886 284.229 357.03 283.778 357.318 283.392C357.606 283.006 358.004 282.705 358.511 282.489C359.019 282.269 359.6 282.159 360.256 282.159C361.199 282.159 361.941 282.364 362.483 282.773C363.025 283.178 363.383 283.722 363.557 284.403ZM372.135 284.403L370.595 284.676C370.531 284.479 370.429 284.292 370.288 284.114C370.152 283.936 369.966 283.79 369.732 283.676C369.497 283.562 369.203 283.506 368.851 283.506C368.37 283.506 367.968 283.614 367.646 283.83C367.324 284.042 367.163 284.316 367.163 284.653C367.163 284.945 367.271 285.18 367.487 285.358C367.703 285.536 368.052 285.682 368.533 285.795L369.919 286.114C370.722 286.299 371.321 286.585 371.714 286.972C372.108 287.358 372.305 287.86 372.305 288.477C372.305 289 372.154 289.466 371.851 289.875C371.552 290.28 371.133 290.598 370.595 290.83C370.061 291.061 369.442 291.176 368.737 291.176C367.76 291.176 366.963 290.968 366.345 290.551C365.728 290.131 365.349 289.534 365.209 288.761L366.851 288.511C366.953 288.939 367.163 289.263 367.482 289.483C367.8 289.699 368.214 289.807 368.726 289.807C369.283 289.807 369.728 289.691 370.061 289.46C370.394 289.225 370.561 288.939 370.561 288.602C370.561 288.33 370.459 288.1 370.254 287.915C370.054 287.729 369.745 287.589 369.328 287.494L367.851 287.17C367.036 286.985 366.434 286.689 366.044 286.284C365.658 285.879 365.464 285.366 365.464 284.744C365.464 284.229 365.608 283.778 365.896 283.392C366.184 283.006 366.582 282.705 367.089 282.489C367.597 282.269 368.179 282.159 368.834 282.159C369.777 282.159 370.519 282.364 371.061 282.773C371.603 283.178 371.961 283.722 372.135 284.403ZM376.713 291.193C376.16 291.193 375.66 291.091 375.213 290.886C374.766 290.678 374.412 290.377 374.151 289.983C373.893 289.589 373.764 289.106 373.764 288.534C373.764 288.042 373.859 287.636 374.048 287.318C374.238 287 374.493 286.748 374.815 286.562C375.137 286.377 375.497 286.237 375.895 286.142C376.293 286.047 376.698 285.975 377.111 285.926C377.634 285.866 378.058 285.816 378.384 285.778C378.709 285.737 378.946 285.67 379.094 285.58C379.241 285.489 379.315 285.341 379.315 285.136V285.097C379.315 284.6 379.175 284.216 378.895 283.943C378.618 283.67 378.205 283.534 377.656 283.534C377.084 283.534 376.634 283.661 376.304 283.915C375.978 284.165 375.753 284.443 375.628 284.75L374.031 284.386C374.221 283.856 374.497 283.428 374.861 283.102C375.228 282.773 375.651 282.534 376.128 282.386C376.605 282.235 377.107 282.159 377.634 282.159C377.982 282.159 378.351 282.201 378.741 282.284C379.135 282.364 379.503 282.511 379.844 282.727C380.188 282.943 380.471 283.252 380.69 283.653C380.91 284.051 381.02 284.568 381.02 285.205V291H379.361V289.807H379.293C379.183 290.027 379.018 290.242 378.798 290.455C378.579 290.667 378.296 290.843 377.952 290.983C377.607 291.123 377.194 291.193 376.713 291.193ZM377.082 289.83C377.552 289.83 377.954 289.737 378.287 289.551C378.624 289.366 378.88 289.123 379.054 288.824C379.232 288.521 379.321 288.197 379.321 287.852V286.727C379.26 286.788 379.143 286.845 378.969 286.898C378.798 286.947 378.603 286.991 378.384 287.028C378.164 287.062 377.95 287.095 377.741 287.125C377.533 287.152 377.359 287.174 377.219 287.193C376.889 287.235 376.588 287.305 376.315 287.403C376.046 287.502 375.83 287.644 375.668 287.83C375.509 288.011 375.429 288.254 375.429 288.557C375.429 288.977 375.584 289.295 375.895 289.511C376.205 289.723 376.601 289.83 377.082 289.83ZM386.55 291.17C385.845 291.17 385.216 290.991 384.663 290.631C384.114 290.267 383.682 289.75 383.368 289.08C383.057 288.405 382.902 287.597 382.902 286.653C382.902 285.71 383.059 284.903 383.374 284.233C383.692 283.562 384.127 283.049 384.68 282.693C385.233 282.337 385.86 282.159 386.561 282.159C387.103 282.159 387.538 282.25 387.868 282.432C388.201 282.61 388.459 282.818 388.641 283.057C388.826 283.295 388.97 283.506 389.072 283.688H389.175V279.364H390.874V291H389.214V289.642H389.072C388.97 289.828 388.822 290.04 388.629 290.278C388.44 290.517 388.179 290.725 387.845 290.903C387.512 291.081 387.08 291.17 386.55 291.17ZM386.925 289.722C387.413 289.722 387.826 289.593 388.163 289.335C388.504 289.074 388.762 288.712 388.936 288.25C389.114 287.788 389.203 287.25 389.203 286.636C389.203 286.03 389.116 285.5 388.942 285.045C388.768 284.591 388.512 284.237 388.175 283.983C387.838 283.729 387.421 283.602 386.925 283.602C386.413 283.602 385.987 283.735 385.646 284C385.305 284.265 385.048 284.627 384.874 285.085C384.703 285.544 384.618 286.061 384.618 286.636C384.618 287.22 384.705 287.744 384.879 288.21C385.054 288.676 385.311 289.045 385.652 289.318C385.997 289.587 386.421 289.722 386.925 289.722ZM396.974 291.176C396.156 291.176 395.442 290.989 394.832 290.614C394.223 290.239 393.749 289.714 393.412 289.04C393.075 288.366 392.906 287.578 392.906 286.676C392.906 285.771 393.075 284.979 393.412 284.301C393.749 283.623 394.223 283.097 394.832 282.722C395.442 282.347 396.156 282.159 396.974 282.159C397.793 282.159 398.507 282.347 399.116 282.722C399.726 283.097 400.2 283.623 400.537 284.301C400.874 284.979 401.043 285.771 401.043 286.676C401.043 287.578 400.874 288.366 400.537 289.04C400.2 289.714 399.726 290.239 399.116 290.614C398.507 290.989 397.793 291.176 396.974 291.176ZM396.98 289.75C397.51 289.75 397.95 289.61 398.298 289.33C398.647 289.049 398.904 288.676 399.071 288.21C399.241 287.744 399.327 287.231 399.327 286.67C399.327 286.114 399.241 285.602 399.071 285.136C398.904 284.667 398.647 284.29 398.298 284.006C397.95 283.722 397.51 283.58 396.98 283.58C396.446 283.58 396.003 283.722 395.651 284.006C395.302 284.29 395.043 284.667 394.872 285.136C394.705 285.602 394.622 286.114 394.622 286.67C394.622 287.231 394.705 287.744 394.872 288.21C395.043 288.676 395.302 289.049 395.651 289.33C396.003 289.61 396.446 289.75 396.98 289.75ZM409.479 284.403L407.939 284.676C407.875 284.479 407.772 284.292 407.632 284.114C407.496 283.936 407.31 283.79 407.075 283.676C406.84 283.562 406.547 283.506 406.195 283.506C405.714 283.506 405.312 283.614 404.99 283.83C404.668 284.042 404.507 284.316 404.507 284.653C404.507 284.945 404.615 285.18 404.831 285.358C405.047 285.536 405.395 285.682 405.876 285.795L407.263 286.114C408.066 286.299 408.664 286.585 409.058 286.972C409.452 287.358 409.649 287.86 409.649 288.477C409.649 289 409.498 289.466 409.195 289.875C408.895 290.28 408.477 290.598 407.939 290.83C407.405 291.061 406.786 291.176 406.081 291.176C405.104 291.176 404.306 290.968 403.689 290.551C403.071 290.131 402.693 289.534 402.553 288.761L404.195 288.511C404.297 288.939 404.507 289.263 404.825 289.483C405.143 289.699 405.558 289.807 406.07 289.807C406.626 289.807 407.071 289.691 407.405 289.46C407.738 289.225 407.905 288.939 407.905 288.602C407.905 288.33 407.803 288.1 407.598 287.915C407.397 287.729 407.089 287.589 406.672 287.494L405.195 287.17C404.38 286.985 403.778 286.689 403.388 286.284C403.001 285.879 402.808 285.366 402.808 284.744C402.808 284.229 402.952 283.778 403.24 283.392C403.528 283.006 403.926 282.705 404.433 282.489C404.941 282.269 405.522 282.159 406.178 282.159C407.121 282.159 407.863 282.364 408.405 282.773C408.946 283.178 409.304 283.722 409.479 284.403ZM419.513 291.176C418.653 291.176 417.912 290.992 417.291 290.625C416.674 290.254 416.196 289.733 415.859 289.062C415.526 288.388 415.359 287.598 415.359 286.693C415.359 285.799 415.526 285.011 415.859 284.33C416.196 283.648 416.666 283.116 417.268 282.733C417.875 282.35 418.583 282.159 419.393 282.159C419.886 282.159 420.363 282.241 420.825 282.403C421.287 282.566 421.702 282.822 422.07 283.17C422.437 283.519 422.727 283.972 422.939 284.528C423.151 285.081 423.257 285.754 423.257 286.545V287.148H416.32V285.875H421.592C421.592 285.428 421.501 285.032 421.32 284.688C421.138 284.339 420.882 284.064 420.553 283.864C420.227 283.663 419.844 283.562 419.405 283.562C418.928 283.562 418.511 283.68 418.155 283.915C417.803 284.146 417.53 284.449 417.337 284.824C417.147 285.195 417.053 285.598 417.053 286.034V287.028C417.053 287.612 417.155 288.108 417.359 288.517C417.568 288.926 417.857 289.239 418.229 289.455C418.6 289.667 419.034 289.773 419.53 289.773C419.852 289.773 420.145 289.727 420.411 289.636C420.676 289.542 420.905 289.402 421.098 289.216C421.291 289.03 421.439 288.801 421.541 288.528L423.149 288.818C423.02 289.292 422.789 289.706 422.456 290.062C422.126 290.415 421.712 290.689 421.212 290.886C420.715 291.08 420.149 291.176 419.513 291.176ZM425.142 291V282.273H426.773V283.693H426.881C427.063 283.212 427.36 282.837 427.773 282.568C428.186 282.295 428.68 282.159 429.256 282.159C429.839 282.159 430.328 282.295 430.722 282.568C431.119 282.841 431.413 283.216 431.602 283.693H431.693C431.902 283.227 432.233 282.856 432.688 282.58C433.142 282.299 433.684 282.159 434.312 282.159C435.104 282.159 435.75 282.407 436.25 282.903C436.754 283.4 437.006 284.148 437.006 285.148V291H435.307V285.307C435.307 284.716 435.146 284.288 434.824 284.023C434.502 283.758 434.117 283.625 433.67 283.625C433.117 283.625 432.688 283.795 432.381 284.136C432.074 284.473 431.92 284.907 431.92 285.438V291H430.227V285.199C430.227 284.725 430.08 284.345 429.784 284.057C429.489 283.769 429.104 283.625 428.631 283.625C428.309 283.625 428.011 283.71 427.739 283.881C427.47 284.047 427.252 284.28 427.085 284.58C426.922 284.879 426.841 285.225 426.841 285.619V291H425.142ZM443.386 291V279.364H447.977C448.86 279.364 449.612 279.532 450.233 279.869C450.854 280.203 451.328 280.667 451.653 281.261C451.983 281.852 452.148 282.534 452.148 283.307C452.148 284.08 451.981 284.761 451.648 285.352C451.314 285.943 450.831 286.403 450.199 286.733C449.57 287.062 448.809 287.227 447.915 287.227H444.989V285.256H447.517C447.991 285.256 448.381 285.174 448.688 285.011C448.998 284.845 449.229 284.616 449.381 284.324C449.536 284.028 449.614 283.689 449.614 283.307C449.614 282.92 449.536 282.583 449.381 282.295C449.229 282.004 448.998 281.778 448.688 281.619C448.377 281.456 447.983 281.375 447.506 281.375H445.847V291H443.386ZM456.121 285.955V291H453.7V279.364H456.053V283.812H456.155C456.352 283.297 456.67 282.894 457.109 282.602C457.549 282.307 458.1 282.159 458.763 282.159C459.369 282.159 459.897 282.292 460.348 282.557C460.803 282.818 461.155 283.195 461.405 283.688C461.659 284.176 461.784 284.761 461.78 285.443V291H459.359V285.875C459.363 285.337 459.227 284.919 458.95 284.619C458.678 284.32 458.295 284.17 457.803 284.17C457.473 284.17 457.181 284.241 456.928 284.381C456.678 284.521 456.481 284.725 456.337 284.994C456.196 285.259 456.125 285.58 456.121 285.955ZM467.628 291.17C466.745 291.17 465.982 290.983 465.338 290.608C464.698 290.229 464.204 289.703 463.855 289.028C463.507 288.35 463.332 287.564 463.332 286.67C463.332 285.769 463.507 284.981 463.855 284.307C464.204 283.629 464.698 283.102 465.338 282.727C465.982 282.348 466.745 282.159 467.628 282.159C468.51 282.159 469.272 282.348 469.912 282.727C470.556 283.102 471.052 283.629 471.401 284.307C471.749 284.981 471.923 285.769 471.923 286.67C471.923 287.564 471.749 288.35 471.401 289.028C471.052 289.703 470.556 290.229 469.912 290.608C469.272 290.983 468.51 291.17 467.628 291.17ZM467.639 289.295C468.041 289.295 468.376 289.182 468.645 288.955C468.914 288.723 469.116 288.409 469.253 288.011C469.393 287.614 469.463 287.161 469.463 286.653C469.463 286.146 469.393 285.693 469.253 285.295C469.116 284.898 468.914 284.583 468.645 284.352C468.376 284.121 468.041 284.006 467.639 284.006C467.234 284.006 466.893 284.121 466.616 284.352C466.344 284.583 466.137 284.898 465.997 285.295C465.861 285.693 465.793 286.146 465.793 286.653C465.793 287.161 465.861 287.614 465.997 288.011C466.137 288.409 466.344 288.723 466.616 288.955C466.893 289.182 467.234 289.295 467.639 289.295ZM480.759 284.761L478.543 284.898C478.505 284.708 478.423 284.538 478.298 284.386C478.173 284.231 478.009 284.108 477.804 284.017C477.603 283.922 477.363 283.875 477.082 283.875C476.707 283.875 476.391 283.955 476.134 284.114C475.876 284.269 475.747 284.477 475.747 284.739C475.747 284.947 475.83 285.123 475.997 285.267C476.164 285.411 476.45 285.527 476.855 285.614L478.435 285.932C479.283 286.106 479.916 286.386 480.332 286.773C480.749 287.159 480.957 287.667 480.957 288.295C480.957 288.867 480.789 289.369 480.452 289.801C480.118 290.233 479.66 290.57 479.077 290.812C478.497 291.051 477.829 291.17 477.071 291.17C475.916 291.17 474.995 290.93 474.31 290.449C473.628 289.964 473.228 289.305 473.111 288.472L475.491 288.347C475.563 288.699 475.738 288.968 476.014 289.153C476.291 289.335 476.645 289.426 477.077 289.426C477.501 289.426 477.842 289.345 478.099 289.182C478.361 289.015 478.493 288.801 478.497 288.54C478.493 288.32 478.401 288.14 478.219 288C478.037 287.856 477.757 287.746 477.378 287.67L475.866 287.369C475.014 287.199 474.38 286.903 473.963 286.483C473.55 286.062 473.344 285.527 473.344 284.875C473.344 284.314 473.495 283.831 473.798 283.426C474.105 283.021 474.535 282.708 475.088 282.489C475.645 282.269 476.296 282.159 477.043 282.159C478.145 282.159 479.012 282.392 479.645 282.858C480.281 283.324 480.652 283.958 480.759 284.761ZM482.482 294.273V282.273H484.868V283.739H484.976C485.082 283.504 485.235 283.265 485.436 283.023C485.641 282.777 485.906 282.572 486.232 282.409C486.561 282.242 486.97 282.159 487.459 282.159C488.095 282.159 488.682 282.326 489.22 282.659C489.758 282.989 490.188 283.487 490.51 284.153C490.832 284.816 490.993 285.648 490.993 286.648C490.993 287.621 490.836 288.443 490.521 289.114C490.211 289.78 489.786 290.286 489.249 290.631C488.714 290.972 488.116 291.142 487.453 291.142C486.983 291.142 486.584 291.064 486.254 290.909C485.929 290.754 485.661 290.559 485.453 290.324C485.245 290.085 485.086 289.845 484.976 289.602H484.902V294.273H482.482ZM484.851 286.636C484.851 287.155 484.923 287.608 485.067 287.994C485.211 288.381 485.419 288.682 485.692 288.898C485.964 289.11 486.296 289.216 486.686 289.216C487.08 289.216 487.413 289.108 487.686 288.892C487.959 288.672 488.165 288.369 488.305 287.983C488.449 287.593 488.521 287.144 488.521 286.636C488.521 286.133 488.451 285.689 488.311 285.307C488.171 284.924 487.964 284.625 487.692 284.409C487.419 284.193 487.084 284.085 486.686 284.085C486.292 284.085 485.959 284.189 485.686 284.398C485.417 284.606 485.211 284.902 485.067 285.284C484.923 285.667 484.851 286.117 484.851 286.636ZM495.027 285.955V291H492.607V279.364H494.959V283.812H495.061C495.258 283.297 495.576 282.894 496.016 282.602C496.455 282.307 497.006 282.159 497.669 282.159C498.275 282.159 498.804 282.292 499.254 282.557C499.709 282.818 500.061 283.195 500.311 283.688C500.565 284.176 500.69 284.761 500.686 285.443V291H498.266V285.875C498.269 285.337 498.133 284.919 497.857 284.619C497.584 284.32 497.201 284.17 496.709 284.17C496.379 284.17 496.088 284.241 495.834 284.381C495.584 284.521 495.387 284.725 495.243 284.994C495.103 285.259 495.031 285.58 495.027 285.955ZM506.534 291.17C505.652 291.17 504.888 290.983 504.244 290.608C503.604 290.229 503.11 289.703 502.761 289.028C502.413 288.35 502.239 287.564 502.239 286.67C502.239 285.769 502.413 284.981 502.761 284.307C503.11 283.629 503.604 283.102 504.244 282.727C504.888 282.348 505.652 282.159 506.534 282.159C507.417 282.159 508.178 282.348 508.818 282.727C509.462 283.102 509.958 283.629 510.307 284.307C510.655 284.981 510.83 285.769 510.83 286.67C510.83 287.564 510.655 288.35 510.307 289.028C509.958 289.703 509.462 290.229 508.818 290.608C508.178 290.983 507.417 291.17 506.534 291.17ZM506.545 289.295C506.947 289.295 507.282 289.182 507.551 288.955C507.82 288.723 508.023 288.409 508.159 288.011C508.299 287.614 508.369 287.161 508.369 286.653C508.369 286.146 508.299 285.693 508.159 285.295C508.023 284.898 507.82 284.583 507.551 284.352C507.282 284.121 506.947 284.006 506.545 284.006C506.14 284.006 505.799 284.121 505.523 284.352C505.25 284.583 505.044 284.898 504.903 285.295C504.767 285.693 504.699 286.146 504.699 286.653C504.699 287.161 504.767 287.614 504.903 288.011C505.044 288.409 505.25 288.723 505.523 288.955C505.799 289.182 506.14 289.295 506.545 289.295ZM512.403 291V282.273H514.75V283.795H514.841C515 283.254 515.267 282.845 515.642 282.568C516.017 282.288 516.449 282.148 516.938 282.148C517.059 282.148 517.189 282.155 517.33 282.17C517.47 282.186 517.593 282.206 517.699 282.233V284.381C517.585 284.347 517.428 284.316 517.227 284.29C517.027 284.263 516.843 284.25 516.676 284.25C516.32 284.25 516.002 284.328 515.722 284.483C515.445 284.634 515.225 284.847 515.062 285.119C514.903 285.392 514.824 285.706 514.824 286.062V291H512.403ZM522.653 291V282.273H525.074V291H522.653ZM523.869 281.148C523.509 281.148 523.201 281.028 522.943 280.79C522.689 280.547 522.562 280.258 522.562 279.92C522.562 279.587 522.689 279.301 522.943 279.062C523.201 278.82 523.509 278.699 523.869 278.699C524.229 278.699 524.536 278.82 524.79 279.062C525.047 279.301 525.176 279.587 525.176 279.92C525.176 280.258 525.047 280.547 524.79 280.79C524.536 281.028 524.229 281.148 523.869 281.148ZM530.956 291.17C530.062 291.17 529.293 290.981 528.649 290.602C528.009 290.22 527.517 289.689 527.172 289.011C526.831 288.333 526.661 287.553 526.661 286.67C526.661 285.777 526.833 284.992 527.178 284.318C527.526 283.64 528.02 283.112 528.661 282.733C529.301 282.35 530.062 282.159 530.945 282.159C531.706 282.159 532.373 282.297 532.945 282.574C533.517 282.85 533.969 283.239 534.303 283.739C534.636 284.239 534.82 284.826 534.854 285.5H532.57C532.505 285.064 532.335 284.714 532.058 284.449C531.786 284.18 531.428 284.045 530.984 284.045C530.609 284.045 530.282 284.148 530.001 284.352C529.725 284.553 529.509 284.847 529.354 285.233C529.198 285.619 529.121 286.087 529.121 286.636C529.121 287.193 529.196 287.667 529.348 288.057C529.503 288.447 529.721 288.744 530.001 288.949C530.282 289.153 530.609 289.256 530.984 289.256C531.261 289.256 531.509 289.199 531.729 289.085C531.952 288.972 532.136 288.807 532.28 288.591C532.428 288.371 532.524 288.108 532.57 287.801H534.854C534.816 288.468 534.634 289.055 534.308 289.562C533.986 290.066 533.541 290.46 532.973 290.744C532.405 291.028 531.732 291.17 530.956 291.17ZM540.347 291.17C539.464 291.17 538.701 290.983 538.057 290.608C537.417 290.229 536.922 289.703 536.574 289.028C536.225 288.35 536.051 287.564 536.051 286.67C536.051 285.769 536.225 284.981 536.574 284.307C536.922 283.629 537.417 283.102 538.057 282.727C538.701 282.348 539.464 282.159 540.347 282.159C541.229 282.159 541.991 282.348 542.631 282.727C543.275 283.102 543.771 283.629 544.119 284.307C544.468 284.981 544.642 285.769 544.642 286.67C544.642 287.564 544.468 288.35 544.119 289.028C543.771 289.703 543.275 290.229 542.631 290.608C541.991 290.983 541.229 291.17 540.347 291.17ZM540.358 289.295C540.759 289.295 541.095 289.182 541.364 288.955C541.633 288.723 541.835 288.409 541.972 288.011C542.112 287.614 542.182 287.161 542.182 286.653C542.182 286.146 542.112 285.693 541.972 285.295C541.835 284.898 541.633 284.583 541.364 284.352C541.095 284.121 540.759 284.006 540.358 284.006C539.953 284.006 539.612 284.121 539.335 284.352C539.063 284.583 538.856 284.898 538.716 285.295C538.58 285.693 538.511 286.146 538.511 286.653C538.511 287.161 538.58 287.614 538.716 288.011C538.856 288.409 539.063 288.723 539.335 288.955C539.612 289.182 539.953 289.295 540.358 289.295ZM548.636 285.955V291H546.216V282.273H548.523V283.812H548.625C548.818 283.305 549.142 282.903 549.597 282.608C550.051 282.309 550.602 282.159 551.25 282.159C551.856 282.159 552.384 282.292 552.835 282.557C553.286 282.822 553.636 283.201 553.886 283.693C554.136 284.182 554.261 284.765 554.261 285.443V291H551.841V285.875C551.845 285.341 551.708 284.924 551.432 284.625C551.155 284.322 550.775 284.17 550.29 284.17C549.964 284.17 549.676 284.241 549.426 284.381C549.18 284.521 548.987 284.725 548.847 284.994C548.71 285.259 548.64 285.58 548.636 285.955ZM563.43 284.761L561.214 284.898C561.177 284.708 561.095 284.538 560.97 284.386C560.845 284.231 560.68 284.108 560.476 284.017C560.275 283.922 560.035 283.875 559.754 283.875C559.379 283.875 559.063 283.955 558.805 284.114C558.548 284.269 558.419 284.477 558.419 284.739C558.419 284.947 558.502 285.123 558.669 285.267C558.836 285.411 559.122 285.527 559.527 285.614L561.107 285.932C561.955 286.106 562.588 286.386 563.004 286.773C563.421 287.159 563.629 287.667 563.629 288.295C563.629 288.867 563.461 289.369 563.124 289.801C562.79 290.233 562.332 290.57 561.749 290.812C561.169 291.051 560.5 291.17 559.743 291.17C558.588 291.17 557.667 290.93 556.982 290.449C556.3 289.964 555.9 289.305 555.783 288.472L558.163 288.347C558.235 288.699 558.41 288.968 558.686 289.153C558.963 289.335 559.317 289.426 559.749 289.426C560.173 289.426 560.514 289.345 560.771 289.182C561.033 289.015 561.165 288.801 561.169 288.54C561.165 288.32 561.072 288.14 560.891 288C560.709 287.856 560.429 287.746 560.05 287.67L558.538 287.369C557.686 287.199 557.052 286.903 556.635 286.483C556.222 286.062 556.016 285.527 556.016 284.875C556.016 284.314 556.167 283.831 556.47 283.426C556.777 283.021 557.207 282.708 557.76 282.489C558.317 282.269 558.968 282.159 559.714 282.159C560.817 282.159 561.684 282.392 562.317 282.858C562.953 283.324 563.324 283.958 563.43 284.761ZM573.325 291.176C572.465 291.176 571.725 290.992 571.104 290.625C570.486 290.254 570.009 289.733 569.672 289.062C569.339 288.388 569.172 287.598 569.172 286.693C569.172 285.799 569.339 285.011 569.672 284.33C570.009 283.648 570.479 283.116 571.081 282.733C571.687 282.35 572.395 282.159 573.206 282.159C573.698 282.159 574.176 282.241 574.638 282.403C575.1 282.566 575.515 282.822 575.882 283.17C576.25 283.519 576.539 283.972 576.751 284.528C576.964 285.081 577.07 285.754 577.07 286.545V287.148H570.132V285.875H575.405C575.405 285.428 575.314 285.032 575.132 284.688C574.95 284.339 574.695 284.064 574.365 283.864C574.039 283.663 573.657 283.562 573.217 283.562C572.74 283.562 572.323 283.68 571.967 283.915C571.615 284.146 571.342 284.449 571.149 284.824C570.96 285.195 570.865 285.598 570.865 286.034V287.028C570.865 287.612 570.967 288.108 571.172 288.517C571.38 288.926 571.67 289.239 572.041 289.455C572.412 289.667 572.846 289.773 573.342 289.773C573.664 289.773 573.958 289.727 574.223 289.636C574.488 289.542 574.717 289.402 574.911 289.216C575.104 289.03 575.251 288.801 575.354 288.528L576.962 288.818C576.833 289.292 576.602 289.706 576.268 290.062C575.939 290.415 575.524 290.689 575.024 290.886C574.528 291.08 573.962 291.176 573.325 291.176ZM586.865 291.176C586.047 291.176 585.333 290.989 584.723 290.614C584.113 290.239 583.64 289.714 583.303 289.04C582.965 288.366 582.797 287.578 582.797 286.676C582.797 285.771 582.965 284.979 583.303 284.301C583.64 283.623 584.113 283.097 584.723 282.722C585.333 282.347 586.047 282.159 586.865 282.159C587.683 282.159 588.397 282.347 589.007 282.722C589.617 283.097 590.09 283.623 590.428 284.301C590.765 284.979 590.933 285.771 590.933 286.676C590.933 287.578 590.765 288.366 590.428 289.04C590.09 289.714 589.617 290.239 589.007 290.614C588.397 290.989 587.683 291.176 586.865 291.176ZM586.871 289.75C587.401 289.75 587.84 289.61 588.189 289.33C588.537 289.049 588.795 288.676 588.962 288.21C589.132 287.744 589.217 287.231 589.217 286.67C589.217 286.114 589.132 285.602 588.962 285.136C588.795 284.667 588.537 284.29 588.189 284.006C587.84 283.722 587.401 283.58 586.871 283.58C586.337 283.58 585.893 283.722 585.541 284.006C585.193 284.29 584.933 284.667 584.763 285.136C584.596 285.602 584.513 286.114 584.513 286.67C584.513 287.231 584.596 287.744 584.763 288.21C584.933 288.676 585.193 289.049 585.541 289.33C585.893 289.61 586.337 289.75 586.871 289.75ZM599.369 284.403L597.83 284.676C597.765 284.479 597.663 284.292 597.523 284.114C597.386 283.936 597.201 283.79 596.966 283.676C596.731 283.562 596.438 283.506 596.085 283.506C595.604 283.506 595.203 283.614 594.881 283.83C594.559 284.042 594.398 284.316 594.398 284.653C594.398 284.945 594.506 285.18 594.722 285.358C594.938 285.536 595.286 285.682 595.767 285.795L597.153 286.114C597.956 286.299 598.555 286.585 598.949 286.972C599.343 287.358 599.54 287.86 599.54 288.477C599.54 289 599.388 289.466 599.085 289.875C598.786 290.28 598.367 290.598 597.83 290.83C597.295 291.061 596.676 291.176 595.972 291.176C594.994 291.176 594.197 290.968 593.58 290.551C592.962 290.131 592.583 289.534 592.443 288.761L594.085 288.511C594.188 288.939 594.398 289.263 594.716 289.483C595.034 289.699 595.449 289.807 595.96 289.807C596.517 289.807 596.962 289.691 597.295 289.46C597.629 289.225 597.795 288.939 597.795 288.602C597.795 288.33 597.693 288.1 597.489 287.915C597.288 287.729 596.979 287.589 596.562 287.494L595.085 287.17C594.271 286.985 593.669 286.689 593.278 286.284C592.892 285.879 592.699 285.366 592.699 284.744C592.699 284.229 592.843 283.778 593.131 283.392C593.419 283.006 593.816 282.705 594.324 282.489C594.831 282.269 595.413 282.159 596.068 282.159C597.011 282.159 597.754 282.364 598.295 282.773C598.837 283.178 599.195 283.722 599.369 284.403ZM605.642 291V282.273H607.341V291H605.642ZM605.801 281.108L607.131 278.489H608.92L607.159 281.108H605.801ZM613.303 291.176C612.458 291.176 611.731 290.985 611.121 290.602C610.515 290.216 610.049 289.684 609.723 289.006C609.397 288.328 609.234 287.551 609.234 286.676C609.234 285.79 609.401 285.008 609.734 284.33C610.068 283.648 610.537 283.116 611.143 282.733C611.75 282.35 612.464 282.159 613.286 282.159C613.948 282.159 614.539 282.282 615.058 282.528C615.577 282.771 615.996 283.112 616.314 283.551C616.636 283.991 616.827 284.504 616.888 285.091H615.234C615.143 284.682 614.935 284.33 614.609 284.034C614.287 283.739 613.856 283.591 613.314 283.591C612.84 283.591 612.426 283.716 612.07 283.966C611.717 284.212 611.443 284.564 611.246 285.023C611.049 285.477 610.95 286.015 610.95 286.636C610.95 287.273 611.047 287.822 611.24 288.284C611.433 288.746 611.706 289.104 612.058 289.358C612.414 289.612 612.833 289.739 613.314 289.739C613.636 289.739 613.928 289.68 614.189 289.562C614.454 289.441 614.676 289.269 614.854 289.045C615.036 288.822 615.162 288.553 615.234 288.239H616.888C616.827 288.803 616.643 289.307 616.337 289.75C616.03 290.193 615.619 290.542 615.104 290.795C614.592 291.049 613.992 291.176 613.303 291.176ZM622.381 291.176C621.563 291.176 620.848 290.989 620.239 290.614C619.629 290.239 619.155 289.714 618.818 289.04C618.481 288.366 618.312 287.578 618.312 286.676C618.312 285.771 618.481 284.979 618.818 284.301C619.155 283.623 619.629 283.097 620.239 282.722C620.848 282.347 621.563 282.159 622.381 282.159C623.199 282.159 623.913 282.347 624.523 282.722C625.133 283.097 625.606 283.623 625.943 284.301C626.28 284.979 626.449 285.771 626.449 286.676C626.449 287.578 626.28 288.366 625.943 289.04C625.606 289.714 625.133 290.239 624.523 290.614C623.913 290.989 623.199 291.176 622.381 291.176ZM622.386 289.75C622.917 289.75 623.356 289.61 623.705 289.33C624.053 289.049 624.311 288.676 624.477 288.21C624.648 287.744 624.733 287.231 624.733 286.67C624.733 286.114 624.648 285.602 624.477 285.136C624.311 284.667 624.053 284.29 623.705 284.006C623.356 283.722 622.917 283.58 622.386 283.58C621.852 283.58 621.409 283.722 621.057 284.006C620.708 284.29 620.449 284.667 620.278 285.136C620.112 285.602 620.028 286.114 620.028 286.67C620.028 287.231 620.112 287.744 620.278 288.21C620.449 288.676 620.708 289.049 621.057 289.33C621.409 289.61 621.852 289.75 622.386 289.75ZM630.044 285.818V291H628.345V282.273H629.976V283.693H630.084C630.285 283.231 630.599 282.86 631.027 282.58C631.459 282.299 632.002 282.159 632.658 282.159C633.252 282.159 633.773 282.284 634.22 282.534C634.667 282.78 635.014 283.148 635.26 283.636C635.506 284.125 635.629 284.729 635.629 285.449V291H633.93V285.653C633.93 285.021 633.766 284.527 633.436 284.17C633.107 283.811 632.654 283.631 632.078 283.631C631.684 283.631 631.334 283.716 631.027 283.886C630.724 284.057 630.483 284.307 630.305 284.636C630.131 284.962 630.044 285.356 630.044 285.818ZM641.669 291.176C640.809 291.176 640.069 290.992 639.447 290.625C638.83 290.254 638.353 289.733 638.016 289.062C637.682 288.388 637.516 287.598 637.516 286.693C637.516 285.799 637.682 285.011 638.016 284.33C638.353 283.648 638.822 283.116 639.425 282.733C640.031 282.35 640.739 282.159 641.55 282.159C642.042 282.159 642.519 282.241 642.982 282.403C643.444 282.566 643.858 282.822 644.226 283.17C644.593 283.519 644.883 283.972 645.095 284.528C645.307 285.081 645.413 285.754 645.413 286.545V287.148H638.476V285.875H643.749C643.749 285.428 643.658 285.032 643.476 284.688C643.294 284.339 643.038 284.064 642.709 283.864C642.383 283.663 642 283.562 641.561 283.562C641.084 283.562 640.667 283.68 640.311 283.915C639.959 284.146 639.686 284.449 639.493 284.824C639.304 285.195 639.209 285.598 639.209 286.034V287.028C639.209 287.612 639.311 288.108 639.516 288.517C639.724 288.926 640.014 289.239 640.385 289.455C640.756 289.667 641.19 289.773 641.686 289.773C642.008 289.773 642.302 289.727 642.567 289.636C642.832 289.542 643.061 289.402 643.254 289.216C643.447 289.03 643.595 288.801 643.697 288.528L645.305 288.818C645.177 289.292 644.946 289.706 644.612 290.062C644.283 290.415 643.868 290.689 643.368 290.886C642.872 291.08 642.305 291.176 641.669 291.176ZM653.838 284.403L652.298 284.676C652.234 284.479 652.132 284.292 651.991 284.114C651.855 283.936 651.67 283.79 651.435 283.676C651.2 283.562 650.906 283.506 650.554 283.506C650.073 283.506 649.671 283.614 649.349 283.83C649.027 284.042 648.866 284.316 648.866 284.653C648.866 284.945 648.974 285.18 649.19 285.358C649.406 285.536 649.755 285.682 650.236 285.795L651.622 286.114C652.425 286.299 653.024 286.585 653.418 286.972C653.812 287.358 654.009 287.86 654.009 288.477C654.009 289 653.857 289.466 653.554 289.875C653.255 290.28 652.836 290.598 652.298 290.83C651.764 291.061 651.145 291.176 650.44 291.176C649.463 291.176 648.666 290.968 648.048 290.551C647.431 290.131 647.052 289.534 646.912 288.761L648.554 288.511C648.656 288.939 648.866 289.263 649.185 289.483C649.503 289.699 649.918 289.807 650.429 289.807C650.986 289.807 651.431 289.691 651.764 289.46C652.098 289.225 652.264 288.939 652.264 288.602C652.264 288.33 652.162 288.1 651.957 287.915C651.757 287.729 651.448 287.589 651.031 287.494L649.554 287.17C648.74 286.985 648.137 286.689 647.747 286.284C647.361 285.879 647.168 285.366 647.168 284.744C647.168 284.229 647.312 283.778 647.599 283.392C647.887 283.006 648.285 282.705 648.793 282.489C649.3 282.269 649.882 282.159 650.537 282.159C651.48 282.159 652.223 282.364 652.764 282.773C653.306 283.178 653.664 283.722 653.838 284.403ZM666.651 284.403L665.111 284.676C665.046 284.479 664.944 284.292 664.804 284.114C664.668 283.936 664.482 283.79 664.247 283.676C664.012 283.562 663.719 283.506 663.366 283.506C662.885 283.506 662.484 283.614 662.162 283.83C661.84 284.042 661.679 284.316 661.679 284.653C661.679 284.945 661.787 285.18 662.003 285.358C662.219 285.536 662.567 285.682 663.048 285.795L664.435 286.114C665.238 286.299 665.836 286.585 666.23 286.972C666.624 287.358 666.821 287.86 666.821 288.477C666.821 289 666.67 289.466 666.366 289.875C666.067 290.28 665.649 290.598 665.111 290.83C664.577 291.061 663.957 291.176 663.253 291.176C662.276 291.176 661.478 290.968 660.861 290.551C660.243 290.131 659.865 289.534 659.724 288.761L661.366 288.511C661.469 288.939 661.679 289.263 661.997 289.483C662.315 289.699 662.73 289.807 663.241 289.807C663.798 289.807 664.243 289.691 664.577 289.46C664.91 289.225 665.077 288.939 665.077 288.602C665.077 288.33 664.974 288.1 664.77 287.915C664.569 287.729 664.26 287.589 663.844 287.494L662.366 287.17C661.552 286.985 660.95 286.689 660.56 286.284C660.173 285.879 659.98 285.366 659.98 284.744C659.98 284.229 660.124 283.778 660.412 283.392C660.7 283.006 661.098 282.705 661.605 282.489C662.113 282.269 662.694 282.159 663.349 282.159C664.293 282.159 665.035 282.364 665.577 282.773C666.118 283.178 666.476 283.722 666.651 284.403ZM672.365 291.176C671.547 291.176 670.833 290.989 670.223 290.614C669.613 290.239 669.14 289.714 668.803 289.04C668.465 288.366 668.297 287.578 668.297 286.676C668.297 285.771 668.465 284.979 668.803 284.301C669.14 283.623 669.613 283.097 670.223 282.722C670.833 282.347 671.547 282.159 672.365 282.159C673.183 282.159 673.897 282.347 674.507 282.722C675.117 283.097 675.59 283.623 675.928 284.301C676.265 284.979 676.433 285.771 676.433 286.676C676.433 287.578 676.265 288.366 675.928 289.04C675.59 289.714 675.117 290.239 674.507 290.614C673.897 290.989 673.183 291.176 672.365 291.176ZM672.371 289.75C672.901 289.75 673.34 289.61 673.689 289.33C674.037 289.049 674.295 288.676 674.462 288.21C674.632 287.744 674.717 287.231 674.717 286.67C674.717 286.114 674.632 285.602 674.462 285.136C674.295 284.667 674.037 284.29 673.689 284.006C673.34 283.722 672.901 283.58 672.371 283.58C671.837 283.58 671.393 283.722 671.041 284.006C670.693 284.29 670.433 284.667 670.263 285.136C670.096 285.602 670.013 286.114 670.013 286.67C670.013 287.231 670.096 287.744 670.263 288.21C670.433 288.676 670.693 289.049 671.041 289.33C671.393 289.61 671.837 289.75 672.371 289.75ZM682.006 291.176C681.161 291.176 680.434 290.985 679.824 290.602C679.218 290.216 678.752 289.684 678.426 289.006C678.1 288.328 677.938 287.551 677.938 286.676C677.938 285.79 678.104 285.008 678.438 284.33C678.771 283.648 679.241 283.116 679.847 282.733C680.453 282.35 681.167 282.159 681.989 282.159C682.652 282.159 683.242 282.282 683.761 282.528C684.28 282.771 684.699 283.112 685.017 283.551C685.339 283.991 685.53 284.504 685.591 285.091H683.938C683.847 284.682 683.638 284.33 683.312 284.034C682.991 283.739 682.559 283.591 682.017 283.591C681.544 283.591 681.129 283.716 680.773 283.966C680.42 284.212 680.146 284.564 679.949 285.023C679.752 285.477 679.653 286.015 679.653 286.636C679.653 287.273 679.75 287.822 679.943 288.284C680.136 288.746 680.409 289.104 680.761 289.358C681.117 289.612 681.536 289.739 682.017 289.739C682.339 289.739 682.631 289.68 682.892 289.562C683.157 289.441 683.379 289.269 683.557 289.045C683.739 288.822 683.866 288.553 683.938 288.239H685.591C685.53 288.803 685.347 289.307 685.04 289.75C684.733 290.193 684.322 290.542 683.807 290.795C683.295 291.049 682.695 291.176 682.006 291.176ZM687.408 291V282.273H689.107V291H687.408ZM688.266 280.926C687.97 280.926 687.716 280.828 687.504 280.631C687.296 280.43 687.192 280.191 687.192 279.915C687.192 279.634 687.296 279.396 687.504 279.199C687.716 278.998 687.97 278.898 688.266 278.898C688.561 278.898 688.813 278.998 689.021 279.199C689.233 279.396 689.339 279.634 689.339 279.915C689.339 280.191 689.233 280.43 689.021 280.631C688.813 280.828 688.561 280.926 688.266 280.926ZM693.932 291.193C693.379 291.193 692.879 291.091 692.432 290.886C691.985 290.678 691.631 290.377 691.369 289.983C691.112 289.589 690.983 289.106 690.983 288.534C690.983 288.042 691.078 287.636 691.267 287.318C691.456 287 691.712 286.748 692.034 286.562C692.356 286.377 692.716 286.237 693.114 286.142C693.511 286.047 693.917 285.975 694.33 285.926C694.852 285.866 695.277 285.816 695.602 285.778C695.928 285.737 696.165 285.67 696.312 285.58C696.46 285.489 696.534 285.341 696.534 285.136V285.097C696.534 284.6 696.394 284.216 696.114 283.943C695.837 283.67 695.424 283.534 694.875 283.534C694.303 283.534 693.852 283.661 693.523 283.915C693.197 284.165 692.972 284.443 692.847 284.75L691.25 284.386C691.439 283.856 691.716 283.428 692.08 283.102C692.447 282.773 692.869 282.534 693.347 282.386C693.824 282.235 694.326 282.159 694.852 282.159C695.201 282.159 695.57 282.201 695.96 282.284C696.354 282.364 696.722 282.511 697.062 282.727C697.407 282.943 697.689 283.252 697.909 283.653C698.129 284.051 698.239 284.568 698.239 285.205V291H696.58V289.807H696.511C696.402 290.027 696.237 290.242 696.017 290.455C695.797 290.667 695.515 290.843 695.17 290.983C694.826 291.123 694.413 291.193 693.932 291.193ZM694.301 289.83C694.771 289.83 695.172 289.737 695.506 289.551C695.843 289.366 696.098 289.123 696.273 288.824C696.451 288.521 696.54 288.197 696.54 287.852V286.727C696.479 286.788 696.362 286.845 696.188 286.898C696.017 286.947 695.822 286.991 695.602 287.028C695.383 287.062 695.169 287.095 694.96 287.125C694.752 287.152 694.578 287.174 694.438 287.193C694.108 287.235 693.807 287.305 693.534 287.403C693.265 287.502 693.049 287.644 692.886 287.83C692.727 288.011 692.648 288.254 692.648 288.557C692.648 288.977 692.803 289.295 693.114 289.511C693.424 289.723 693.82 289.83 694.301 289.83ZM700.501 291V282.273H702.2V291H700.501ZM701.359 280.926C701.064 280.926 700.81 280.828 700.598 280.631C700.39 280.43 700.286 280.191 700.286 279.915C700.286 279.634 700.39 279.396 700.598 279.199C700.81 278.998 701.064 278.898 701.359 278.898C701.655 278.898 701.907 278.998 702.115 279.199C702.327 279.396 702.433 279.634 702.433 279.915C702.433 280.191 702.327 280.43 702.115 280.631C701.907 280.828 701.655 280.926 701.359 280.926ZM711.026 284.403L709.486 284.676C709.421 284.479 709.319 284.292 709.179 284.114C709.043 283.936 708.857 283.79 708.622 283.676C708.387 283.562 708.094 283.506 707.741 283.506C707.26 283.506 706.859 283.614 706.537 283.83C706.215 284.042 706.054 284.316 706.054 284.653C706.054 284.945 706.162 285.18 706.378 285.358C706.594 285.536 706.942 285.682 707.423 285.795L708.81 286.114C709.613 286.299 710.211 286.585 710.605 286.972C710.999 287.358 711.196 287.86 711.196 288.477C711.196 289 711.045 289.466 710.741 289.875C710.442 290.28 710.024 290.598 709.486 290.83C708.952 291.061 708.332 291.176 707.628 291.176C706.651 291.176 705.853 290.968 705.236 290.551C704.618 290.131 704.24 289.534 704.099 288.761L705.741 288.511C705.844 288.939 706.054 289.263 706.372 289.483C706.69 289.699 707.105 289.807 707.616 289.807C708.173 289.807 708.618 289.691 708.952 289.46C709.285 289.225 709.452 288.939 709.452 288.602C709.452 288.33 709.349 288.1 709.145 287.915C708.944 287.729 708.635 287.589 708.219 287.494L706.741 287.17C705.927 286.985 705.325 286.689 704.935 286.284C704.548 285.879 704.355 285.366 704.355 284.744C704.355 284.229 704.499 283.778 704.787 283.392C705.075 283.006 705.473 282.705 705.98 282.489C706.488 282.269 707.069 282.159 707.724 282.159C708.668 282.159 709.41 282.364 709.952 282.773C710.493 283.178 710.851 283.722 711.026 284.403ZM721.06 291.176C720.2 291.176 719.459 290.992 718.838 290.625C718.221 290.254 717.743 289.733 717.406 289.062C717.073 288.388 716.906 287.598 716.906 286.693C716.906 285.799 717.073 285.011 717.406 284.33C717.743 283.648 718.213 283.116 718.815 282.733C719.421 282.35 720.13 282.159 720.94 282.159C721.433 282.159 721.91 282.241 722.372 282.403C722.834 282.566 723.249 282.822 723.616 283.17C723.984 283.519 724.274 283.972 724.486 284.528C724.698 285.081 724.804 285.754 724.804 286.545V287.148H717.866V285.875H723.139C723.139 285.428 723.048 285.032 722.866 284.688C722.685 284.339 722.429 284.064 722.099 283.864C721.774 283.663 721.391 283.562 720.952 283.562C720.474 283.562 720.058 283.68 719.702 283.915C719.349 284.146 719.077 284.449 718.884 284.824C718.694 285.195 718.599 285.598 718.599 286.034V287.028C718.599 287.612 718.702 288.108 718.906 288.517C719.115 288.926 719.404 289.239 719.776 289.455C720.147 289.667 720.58 289.773 721.077 289.773C721.399 289.773 721.692 289.727 721.957 289.636C722.223 289.542 722.452 289.402 722.645 289.216C722.838 289.03 722.986 288.801 723.088 288.528L724.696 288.818C724.567 289.292 724.336 289.706 724.003 290.062C723.673 290.415 723.259 290.689 722.759 290.886C722.262 291.08 721.696 291.176 721.06 291.176ZM726.689 291V282.273H728.32V283.693H728.428C728.609 283.212 728.907 282.837 729.32 282.568C729.732 282.295 730.227 282.159 730.803 282.159C731.386 282.159 731.875 282.295 732.268 282.568C732.666 282.841 732.96 283.216 733.149 283.693H733.24C733.448 283.227 733.78 282.856 734.234 282.58C734.689 282.299 735.231 282.159 735.859 282.159C736.651 282.159 737.297 282.407 737.797 282.903C738.301 283.4 738.553 284.148 738.553 285.148V291H736.854V285.307C736.854 284.716 736.693 284.288 736.371 284.023C736.049 283.758 735.664 283.625 735.217 283.625C734.664 283.625 734.234 283.795 733.928 284.136C733.621 284.473 733.467 284.907 733.467 285.438V291H731.774V285.199C731.774 284.725 731.626 284.345 731.331 284.057C731.036 283.769 730.651 283.625 730.178 283.625C729.856 283.625 729.558 283.71 729.286 283.881C729.017 284.047 728.799 284.28 728.632 284.58C728.469 284.879 728.388 285.225 728.388 285.619V291H726.689ZM744.888 291V282.273H747.308V291H744.888ZM746.104 281.148C745.744 281.148 745.435 281.028 745.178 280.79C744.924 280.547 744.797 280.258 744.797 279.92C744.797 279.587 744.924 279.301 745.178 279.062C745.435 278.82 745.744 278.699 746.104 278.699C746.464 278.699 746.77 278.82 747.024 279.062C747.282 279.301 747.411 279.587 747.411 279.92C747.411 280.258 747.282 280.547 747.024 280.79C746.77 281.028 746.464 281.148 746.104 281.148ZM753.19 291.17C752.308 291.17 751.545 290.983 750.901 290.608C750.26 290.229 749.766 289.703 749.418 289.028C749.069 288.35 748.895 287.564 748.895 286.67C748.895 285.769 749.069 284.981 749.418 284.307C749.766 283.629 750.26 283.102 750.901 282.727C751.545 282.348 752.308 282.159 753.19 282.159C754.073 282.159 754.834 282.348 755.474 282.727C756.118 283.102 756.615 283.629 756.963 284.307C757.312 284.981 757.486 285.769 757.486 286.67C757.486 287.564 757.312 288.35 756.963 289.028C756.615 289.703 756.118 290.229 755.474 290.608C754.834 290.983 754.073 291.17 753.19 291.17ZM753.202 289.295C753.603 289.295 753.938 289.182 754.207 288.955C754.476 288.723 754.679 288.409 754.815 288.011C754.955 287.614 755.026 287.161 755.026 286.653C755.026 286.146 754.955 285.693 754.815 285.295C754.679 284.898 754.476 284.583 754.207 284.352C753.938 284.121 753.603 284.006 753.202 284.006C752.796 284.006 752.455 284.121 752.179 284.352C751.906 284.583 751.7 284.898 751.56 285.295C751.423 285.693 751.355 286.146 751.355 286.653C751.355 287.161 751.423 287.614 751.56 288.011C751.7 288.409 751.906 288.723 752.179 288.955C752.455 289.182 752.796 289.295 753.202 289.295ZM761.48 285.955V291H759.06V282.273H761.366V283.812H761.469C761.662 283.305 761.986 282.903 762.44 282.608C762.895 282.309 763.446 282.159 764.094 282.159C764.7 282.159 765.228 282.292 765.679 282.557C766.13 282.822 766.48 283.201 766.73 283.693C766.98 284.182 767.105 284.765 767.105 285.443V291H764.685V285.875C764.688 285.341 764.552 284.924 764.276 284.625C763.999 284.322 763.618 284.17 763.134 284.17C762.808 284.17 762.52 284.241 762.27 284.381C762.024 284.521 761.83 284.725 761.69 284.994C761.554 285.259 761.484 285.58 761.48 285.955ZM769.013 291V282.273H771.433V291H769.013ZM770.229 281.148C769.869 281.148 769.56 281.028 769.303 280.79C769.049 280.547 768.922 280.258 768.922 279.92C768.922 279.587 769.049 279.301 769.303 279.062C769.56 278.82 769.869 278.699 770.229 278.699C770.589 278.699 770.895 278.82 771.149 279.062C771.407 279.301 771.536 279.587 771.536 279.92C771.536 280.258 771.407 280.547 771.149 280.79C770.895 281.028 770.589 281.148 770.229 281.148ZM777.315 291.17C776.421 291.17 775.652 290.981 775.009 290.602C774.368 290.22 773.876 289.689 773.531 289.011C773.19 288.333 773.02 287.553 773.02 286.67C773.02 285.777 773.192 284.992 773.537 284.318C773.885 283.64 774.38 283.112 775.02 282.733C775.66 282.35 776.421 282.159 777.304 282.159C778.065 282.159 778.732 282.297 779.304 282.574C779.876 282.85 780.329 283.239 780.662 283.739C780.995 284.239 781.179 284.826 781.213 285.5H778.929C778.865 285.064 778.694 284.714 778.418 284.449C778.145 284.18 777.787 284.045 777.344 284.045C776.969 284.045 776.641 284.148 776.361 284.352C776.084 284.553 775.868 284.847 775.713 285.233C775.558 285.619 775.48 286.087 775.48 286.636C775.48 287.193 775.556 287.667 775.707 288.057C775.863 288.447 776.08 288.744 776.361 288.949C776.641 289.153 776.969 289.256 777.344 289.256C777.62 289.256 777.868 289.199 778.088 289.085C778.312 288.972 778.495 288.807 778.639 288.591C778.787 288.371 778.884 288.108 778.929 287.801H781.213C781.175 288.468 780.993 289.055 780.668 289.562C780.346 290.066 779.901 290.46 779.332 290.744C778.764 291.028 778.092 291.17 777.315 291.17ZM786.706 291.17C785.823 291.17 785.06 290.983 784.416 290.608C783.776 290.229 783.282 289.703 782.933 289.028C782.585 288.35 782.411 287.564 782.411 286.67C782.411 285.769 782.585 284.981 782.933 284.307C783.282 283.629 783.776 283.102 784.416 282.727C785.06 282.348 785.823 282.159 786.706 282.159C787.589 282.159 788.35 282.348 788.99 282.727C789.634 283.102 790.13 283.629 790.479 284.307C790.827 284.981 791.001 285.769 791.001 286.67C791.001 287.564 790.827 288.35 790.479 289.028C790.13 289.703 789.634 290.229 788.99 290.608C788.35 290.983 787.589 291.17 786.706 291.17ZM786.717 289.295C787.119 289.295 787.454 289.182 787.723 288.955C787.992 288.723 788.195 288.409 788.331 288.011C788.471 287.614 788.541 287.161 788.541 286.653C788.541 286.146 788.471 285.693 788.331 285.295C788.195 284.898 787.992 284.583 787.723 284.352C787.454 284.121 787.119 284.006 786.717 284.006C786.312 284.006 785.971 284.121 785.695 284.352C785.422 284.583 785.215 284.898 785.075 285.295C784.939 285.693 784.871 286.146 784.871 286.653C784.871 287.161 784.939 287.614 785.075 288.011C785.215 288.409 785.422 288.723 785.695 288.955C785.971 289.182 786.312 289.295 786.717 289.295ZM794.996 285.955V291H792.575V282.273H794.882V283.812H794.984C795.178 283.305 795.501 282.903 795.956 282.608C796.411 282.309 796.962 282.159 797.609 282.159C798.215 282.159 798.744 282.292 799.195 282.557C799.645 282.822 799.996 283.201 800.246 283.693C800.496 284.182 800.621 284.765 800.621 285.443V291H798.2V285.875C798.204 285.341 798.068 284.924 797.791 284.625C797.515 284.322 797.134 284.17 796.649 284.17C796.323 284.17 796.036 284.241 795.786 284.381C795.539 284.521 795.346 284.725 795.206 284.994C795.07 285.259 795 285.58 794.996 285.955ZM809.79 284.761L807.574 284.898C807.536 284.708 807.455 284.538 807.33 284.386C807.205 284.231 807.04 284.108 806.835 284.017C806.634 283.922 806.394 283.875 806.114 283.875C805.739 283.875 805.422 283.955 805.165 284.114C804.907 284.269 804.778 284.477 804.778 284.739C804.778 284.947 804.862 285.123 805.028 285.267C805.195 285.411 805.481 285.527 805.886 285.614L807.466 285.932C808.314 286.106 808.947 286.386 809.364 286.773C809.78 287.159 809.989 287.667 809.989 288.295C809.989 288.867 809.82 289.369 809.483 289.801C809.15 290.233 808.691 290.57 808.108 290.812C807.528 291.051 806.86 291.17 806.102 291.17C804.947 291.17 804.027 290.93 803.341 290.449C802.659 289.964 802.259 289.305 802.142 288.472L804.523 288.347C804.595 288.699 804.769 288.968 805.045 289.153C805.322 289.335 805.676 289.426 806.108 289.426C806.532 289.426 806.873 289.345 807.131 289.182C807.392 289.015 807.525 288.801 807.528 288.54C807.525 288.32 807.432 288.14 807.25 288C807.068 287.856 806.788 287.746 806.409 287.67L804.898 287.369C804.045 287.199 803.411 286.903 802.994 286.483C802.581 286.062 802.375 285.527 802.375 284.875C802.375 284.314 802.527 283.831 802.83 283.426C803.136 283.021 803.566 282.708 804.119 282.489C804.676 282.269 805.328 282.159 806.074 282.159C807.176 282.159 808.044 282.392 808.676 282.858C809.313 283.324 809.684 283.958 809.79 284.761Z" fill="#8D8D99"/>
<path d="M442.375 294.182H564.192V295.273H442.375V294.182Z" fill="#8D8D99"/>
<path d="M743.922 294.182H810.551V295.273H743.922V294.182Z" fill="#8D8D99"/>
<a href="https://phosphoricons.com/">
<rect fill="black" fill-opacity="0" x="346.375" y="3.31818" width="121.817" height="19.3636"/>
</a>
<a href="https://ionic.io/ionicons">
<rect fill="black" fill-opacity="0" x="647.922" y="3.31818" width="66.6293" height="19.3636"/>
</a>
</svg>
